<svg aria-hidden="true" style="width:0;height:0;position:absolute;overflow:hidden" xmlns="http://www.w3.org/2000/svg"><defs><symbol id="icon-circle-ratio62" viewBox="0 0 32 32"><path d="M32 16c0 8.837-7.163 16-16 16S0 24.837 0 16 7.163 0 16 0s16 7.163 16 16zM6.186 16c0 5.42 4.394 9.814 9.814 9.814S25.814 21.42 25.814 16 21.42 6.186 16 6.186 6.186 10.58 6.186 16z"/></symbol><symbol id="icon-circle-ratio40" viewBox="0 0 32 32"><path d="M32 16c0 8.837-7.163 16-16 16S0 24.837 0 16 7.163 0 16 0s16 7.163 16 16zM9.599 16a6.401 6.401 0 1 0 12.802 0A6.401 6.401 0 0 0 9.6 16z"/></symbol><symbol id="icon-circle-ratio73" viewBox="0 0 32 32"><path d="M32 16c0 8.837-7.163 16-16 16S0 24.837 0 16 7.163 0 16 0s16 7.163 16 16zM4.318 16c0 6.452 5.23 11.682 11.682 11.682S27.682 22.452 27.682 16 22.452 4.318 16 4.318 4.318 9.548 4.318 16z"/></symbol><symbol id="icon-close-cross" viewBox="0 0 32 32"><path d="M23.884 6.706 16 14.59 8.116 6.706a.995.995 0 0 0-1.38.031 1 1 0 0 0-.031 1.38l7.88 7.884-7.882 7.882a1.002 1.002 0 0 0-.018 1.427.998.998 0 0 0 1.427-.015l7.886-7.882 7.884 7.884a1 1 0 0 0 1.38-.03 1 1 0 0 0 .03-1.38l-7.884-7.884 7.884-7.886a1.002 1.002 0 0 0 .018-1.427.998.998 0 0 0-1.427.015v.002z"/></symbol><symbol id="icon-facebook" viewBox="0 0 32 32"><path d="M22.512.007 18.895 0c-4.064 0-6.69 3.091-6.69 7.875v3.631H8.568c-.314 0-.569.292-.569.653v5.261c0 .361.255.652.569.652h3.637v13.275c0 .36.254.652.569.652h4.745c.314 0 .569-.292.569-.652V18.072h4.252c.314 0 .569-.292.569-.652l.002-5.261c0-.173-.06-.339-.167-.461s-.252-.191-.402-.191h-4.254V8.429c0-1.479.307-2.23 1.987-2.23l2.437-.001c.314 0 .568-.292.568-.652V.661c0-.36-.254-.652-.568-.652z"/></symbol><symbol id="icon-horiz-bar" viewBox="0 0 560 32"><path stroke-width="32" d="M560 16H0"/></symbol><symbol id="icon-instagram" viewBox="0 0 32 32"><path d="M16.316 32h-.319c-2.508.006-4.826-.058-7.08-.195-2.066-.126-3.953-.84-5.455-2.065-1.45-1.182-2.44-2.781-2.942-4.75-.438-1.715-.461-3.398-.483-5.026a343.853 343.853 0 0 1-.036-3.96c.003-1.414.02-2.798.036-3.966.022-1.628.045-3.311.483-5.026.503-1.97 1.493-3.568 2.942-4.75C4.965 1.037 6.851.323 8.918.197 11.172.06 13.49-.004 16.004.002c2.509-.005 4.826.058 7.08.195 2.066.126 3.953.84 5.455 2.065 1.45 1.182 2.44 2.781 2.943 4.75.437 1.715.461 3.398.483 5.026.016 1.168.033 2.553.036 3.96v.006c-.003 1.408-.02 2.792-.036 3.96-.022 1.628-.045 3.311-.483 5.026-.503 1.97-1.493 3.568-2.943 4.75-1.502 1.225-3.389 1.939-5.455 2.065-2.159.131-4.376.195-6.768.195zm-.319-2.5c2.468.006 4.733-.056 6.934-.19 1.563-.095 2.917-.602 4.027-1.507 1.026-.837 1.732-1.991 2.1-3.431.364-1.428.385-2.96.406-4.442.016-1.16.032-2.535.036-3.929-.004-1.394-.02-2.769-.036-3.929-.02-1.482-.041-3.015-.406-4.443-.367-1.44-1.074-2.594-2.1-3.431-1.11-.905-2.465-1.412-4.027-1.507a108.807 108.807 0 0 0-6.928-.19c-2.467-.006-4.733.056-6.934.19-1.563.095-2.917.602-4.027 1.507-1.026.837-1.732 1.991-2.1 3.431-.364 1.428-.385 2.96-.406 4.443a363.726 363.726 0 0 0-.036 3.932c.003 1.389.02 2.765.036 3.926.02 1.482.041 3.015.406 4.442.367 1.44 1.074 2.594 2.1 3.431 1.11.905 2.465 1.412 4.027 1.507 2.201.134 4.467.197 6.928.191zm-.06-5.688c-4.308 0-7.813-3.505-7.813-7.812s3.505-7.813 7.813-7.813S23.75 11.692 23.75 16s-3.505 7.812-7.813 7.812zm0-13.125c-2.929 0-5.313 2.383-5.313 5.313s2.383 5.312 5.313 5.312c2.93 0 5.313-2.383 5.313-5.312s-2.383-5.313-5.313-5.313zm8.688-5a1.875 1.875 0 1 0 0 3.75 1.875 1.875 0 0 0 0-3.75z"/></symbol><symbol id="icon-list-disc" viewBox="0 0 32 32"><path fill="#fff" style="fill:var(--color1,#fff);stroke:var(--color2,#f3848c)" stroke="#f3848c" stroke-width="1.333" d="M31.333 16c0 8.468-6.865 15.333-15.333 15.333S.667 24.468.667 16 7.532.667 16 .667 31.333 7.532 31.333 16z"/><path fill="#fff" style="fill:var(--color1,#fff)" d="M29.333 16c0 7.364-5.97 13.333-13.333 13.333S2.667 23.363 2.667 16C2.667 8.636 8.637 2.667 16 2.667S29.333 8.637 29.333 16z"/><path fill="none" stroke="#f3848c" style="stroke:var(--color2,#f3848c)" stroke-linecap="round" stroke-width=".667" d="M29 16c0 7.18-5.82 13-13 13S3 23.18 3 16 8.82 3 16 3s13 5.82 13 13z"/><path style="fill:var(--color3,#000)" d="M9.333 10.953a2.859 2.859 0 0 0 2.381 2.814v4.329a.48.48 0 0 0 .476.477h7.62a.476.476 0 0 0 .476-.477v-4.329a2.859 2.859 0 0 0 2.38-2.814 2.86 2.86 0 0 0-2.857-2.857h-1.078c-.603-.862-1.602-1.429-2.732-1.429s-2.129.566-2.732 1.429h-1.078a2.865 2.865 0 0 0-2.857 2.857zm3.333 6.191h6.668v.475h-6.668v-.475zm-.475-8.096h.616c-.093.309-.14.63-.14.952a.472.472 0 0 0 .476.476.48.48 0 0 0 .477-.476c0-1.313 1.068-2.381 2.381-2.381S18.382 8.687 18.382 10a.476.476 0 0 0 .953 0c0-.331-.05-.65-.141-.952h.616a1.906 1.906 0 0 1 1.348 3.25 1.91 1.91 0 0 1-1.344.56h-.003a.478.478 0 0 0-.478.478l.001.005v2.853h-6.668V13.337a.478.478 0 0 0-.477-.477h-.003a1.904 1.904 0 0 1 .004-3.809zm9.046 11.429H10.763a.472.472 0 0 0-.476.476.472.472 0 0 0 .476.476h10.474a.472.472 0 0 0 .476-.476.472.472 0 0 0-.476-.476zm0 1.429H10.763a.472.472 0 0 0-.476.476.472.472 0 0 0 .476.476h10.474a.472.472 0 0 0 .476-.476.472.472 0 0 0-.476-.476zm-2.381 1.441h-5.713a.472.472 0 0 0-.476.476.472.472 0 0 0 .476.476h5.713a.472.472 0 0 0 .476-.476.473.473 0 0 0-.476-.476z"/></symbol><symbol id="icon-logo" viewBox="0 0 72 32"><path d="M42.865 15.997c0 .261-.008.521 0 .783.09 2.653-.746 5.043-2.089 7.296-.45.756-.881 1.524-1.268 2.314-.32.649-.765 1.104-1.456 1.37-.386.148-.744.405-1.068.669-1.49 1.218-3.181 2.091-4.989 2.705-1.201.408-2.438.767-3.743.751-.389-.004-.779.114-1.169.115s-.779-.124-1.165-.108c-1.682.071-3.241-.441-4.789-.979-1.689-.586-3.18-1.513-4.583-2.617-1.98-1.558-3.39-3.52-4.428-5.765-.559-1.211-1.014-2.46-1.143-3.804-.021-.223-.096-.444-.162-.66-.47-1.507-.2-2.985.091-4.486.223-1.148.452-2.283.885-3.373 1.146-2.884 2.967-5.245 5.488-7.1C19.379 1.563 21.731.614 24.289.206c2.935-.468 5.8-.131 8.58.963 1.387.548 2.696 1.241 3.839 2.159 1.066.856 2.028 1.858 2.937 2.883.823.928 1.408 2.034 1.93 3.162.815 1.762 1.347 3.586 1.293 5.546-.012.362-.003.721-.004 1.08zm-1.127-3.57c-.081-.616-.132-1.329-.284-2.022-.433-1.992-1.599-3.548-3.152-4.818-.882-.722-1.843-1.349-2.791-1.988-.321-.216-.694-.415-1.068-.481-.963-.176-1.938-.34-2.914-.389-1.695-.085-3.217-.518-4.496-1.685-.942-.858-1.967-.941-2.946-.186-1.109.855-2.372 1.357-3.659 1.854-.943.364-1.851.823-2.758 1.276-.758.379-1.199.971-1.188 1.867.006.503-.227.923-.697 1.201-.392.234-.769.492-1.128.773-1.003.781-1.785 1.662-1.953 3.027-.133 1.08-.464 2.148-1.212 3.038-.25.306-.405.677-.446 1.069-.069.807-.041 1.625-.02 2.437.006.217.101.451.213.642.258.452.54.891.843 1.315.734 1.01 1.373 2.046 1.52 3.329.143 1.244.75 2.257 1.776 3.03 1.487 1.121 2.92 2.311 4.43 3.402.811.588 1.68 1.102 2.75 1.221s2.119.408 3.078.941c.201.107.422.174.649.197 1.354.144 2.606-.187 3.795-.814.373-.197.756-.375 1.142-.546.929-.412 1.959-.682 2.768-1.255.9-.639 1.863-.923 2.896-1.101.446-.077.811-.26 1.102-.588.347-.39.668-.802 1.029-1.179.374-.389.643-.802.709-1.356.1-.849.467-1.599.933-2.319.788-1.217 1.237-2.562 1.47-3.992.061-.375.096-.692-.092-1.023-.543-.953-.321-2.035-.493-3.049-.087-.548.113-1.148.197-1.832l-.002.001zm-6.532-9.518c-.229-.251-.302-.364-.406-.434-.187-.128-.392-.233-.591-.344-1.704-.95-3.569-1.412-5.476-1.743-.383-.067-.786-.037-1.176-.022-.102.004-.223.102-.288.19-.03.04.037.18.093.248.424.5.977.878 1.601 1.092 1.076.383 2.208.594 3.351.623.484.013.967.104 1.45.169.411.058.822.127 1.442.223zM20.733 30.284c-1.143-.925-2.146-1.752-3.166-2.556a113.403 113.403 0 0 0-2.57-1.951c-.097-.072-.25-.07-.462-.124 1.04 1.728 4.513 4.353 6.198 4.632zM13.029 8.699c.69-.521 1.328-1.07 2.028-1.524.982-.633 1.358-1.421 1.126-2.773-.697.564-1.194 1.244-1.731 1.861-.568.651-.989 1.426-1.462 2.155-.037.059.023.175.04.281zm23.256 19.722c-.643-.044-1.291.069-1.695.412-.766.652-1.677.98-2.604 1.306-.487.171-.945.422-1.404.661-.063.033-.075.209-.062.313.004.035.176.092.247.069.832-.281 1.692-.507 2.48-.882.967-.459 1.874-1.04 2.799-1.579.097-.054.148-.181.239-.299zm-24.576-9.039c-.185.54-.148.838-.032 1.156.322.882.518 1.814 1.1 2.585.215.286.26.925.657.787.35-.12-.06-.627-.084-.968-.092-1.304-.784-2.355-1.641-3.561zm6.24-16.24.086.129c.481-.176.966-.343 1.442-.532 1.034-.41 2.065-.829 3.092-1.254.207-.087.397-.225.574-.366.049-.04.041-.175.025-.258-.008-.037-.106-.078-.162-.08a1.017 1.017 0 0 0-.284.047c-1.397.393-2.714.974-3.975 1.68-.295.165-.534.422-.798.636zm24.533 14.005c.084-.097.151-.138.155-.183.136-1.421-.016-2.829-.213-4.233-.01-.071-.109-.172-.176-.18-.074-.01-.19.051-.235.117a.748.748 0 0 0-.134.352 13.346 13.346 0 0 0 .23 3.46c.045.23.237.432.373.668zm-31.11-3.92c.545-.206.627-.578.685-.915.142-.82.498-1.61.381-2.477-.57 1.035-1.075 2.083-1.066 3.392zm13.193 18.007c-1.222-.535-1.553-.591-2.641-.441.461.173.876.448 1.294.452.435.006.907.534 1.348-.011z"/><path d="M27.085 20.593c-.836-.015-1.409-.361-1.835-1.03-.396-.624-1.055-.947-1.658-1.332-.761-.484-1.379-1.03-1.555-2.012-.122-.665.02-1.244.293-1.769.229-.439.638-.847 1.068-1.108.466-.283.852-.55 1.067-1.073.243-.602.857-.638 1.4-.746.512-.102 1.031-.167 1.536-.295.69-.174 1.315-.12 1.819.411.389.412.844.708 1.351.958.527.26.701.564.536 1.107-.112.369-.004.62.135.914.152.321.308.647.412.986.347 1.128-.052 2.077-1.122 2.58-.663.311-1.17.726-1.335 1.456a.683.683 0 0 1-.514.537c-.529.153-1.066.28-1.599.417zm3.508-4.729c.017-1.987-1.505-3.576-3.484-3.579-1.776 0-3.562 1.189-3.631 3.469-.056 1.824 1.48 3.524 3.481 3.53 2.437.012 3.587-1.663 3.634-3.42zm-7.134 1.9c0-.255.025-.385-.004-.503-.262-1.079-.433-2.148.162-3.188.043-.075-.056-.229-.089-.346-.117.037-.258.045-.346.117-.984.799-1.422 2.718.277 3.92zm3.652-5.977c.412.149.647.255.892.321.907.238 1.68.664 2.218 1.451.106.155.243.385.446.209.108-.094.143-.382.081-.526-.084-.191-.275-.43-.458-.468-.498-.103-.771-.46-1.095-.771-.546-.519-1.156-.682-2.085-.215zm-.056 7.822-.012-.075c-.261 0-.525-.022-.782.009-.132.016-.252.127-.378.195.114.1.213.257.345.29.703.175 1.411.213 2.104-.055.118-.046.25-.106.324-.201.066-.08.087-.223.074-.331-.005-.04-.169-.101-.25-.088-.476.074-.95.167-1.422.254l-.002.001zm3.593-2.038c.487-.089.704-.361.733-.779a7.158 7.158 0 0 0-.015-1.056c-.008-.093-.138-.175-.213-.263-.108.101-.328.238-.308.299.198.609-.215 1.155-.196 1.798v.001zM35.101 20.323c-.028.014-.141.107-.263.12-.111.013-.273-.024-.342-.101a16.942 16.942 0 0 1-.991-1.199c-.081-.109-.114-.401-.068-.426.152-.083.449-.17.516-.098.391.427.736.897 1.089 1.357.035.046.024.125.06.346zM18.53 23.668c.181.014.538.025.887.084.087.015.203.183.203.283s-.1.274-.187.295c-.677.166-1.352.207-1.951-.241a.292.292 0 0 1-.096-.246c.013-.067.118-.16.189-.165.26-.022.521-.01.955-.01zM39.757 9.562l.256.139c-.073.129-.117.336-.223.373-.488.177-.988.319-1.497.423-.146.028-.359-.114-.494-.231-.156-.136-.063-.431.133-.461.577-.088 1.158-.155 1.824-.242zM22.515 26.541c.271.125.498.16.608.294.303.372.581.764.83 1.174.122.195.011.406-.194.462-.112.031-.316-.06-.399-.16a12.741 12.741 0 0 1-.918-1.238c-.065-.102.036-.308.072-.532zM33.146 11.018c.017-.114 0-.244.054-.294.073-.066.23-.12.305-.085.103.049.169.182.24.286.196.291.391.584.578.882.084.134.196.276.203.42a.564.564 0 0 1-.175.398c-.056.051-.289.018-.346-.053-.375-.471-.824-.913-.857-1.554zM34.312 6.01c-.081.481-.114.836-.208 1.175a.974.974 0 0 1-.324.465c-.108.086-.295.073-.446.105-.012-.14-.056-.286-.031-.419.079-.41.185-.815.28-1.222.007-.032.005-.065.015-.096.075-.245.236-.432.494-.331.13.051.191.276.221.323zM27.318 9.141c.228.028.523.043.804.111.096.023.238.194.221.268-.029.132-.14.306-.258.345a.991.991 0 0 1-.571.003c-.324-.102-.627-.136-.95-.002-.213.088-.412-.004-.469-.214-.076-.281.137-.417.377-.457.256-.042.52-.035.845-.054zM32.377 22.97c-.092.398-.162.748-.262 1.089-.019.067-.162.157-.222.142-.108-.026-.26-.11-.282-.198a1.293 1.293 0 0 1-.016-.577c.076-.35.151-.682.008-1.039-.068-.171-.049-.444.214-.444.142 0 .345.173.409.316.103.229.11.499.151.71zM28.386 22.868c-.053.093-.078.204-.148.251-.427.291-.855.584-1.304.838-.115.065-.316.025-.463-.018-.215-.063-.259-.342-.081-.455.492-.312.986-.621 1.493-.908.081-.046.243.004.348.055.071.035.101.149.155.237zM22.945 4.155c.069.04.2.075.217.139.17.618.333 1.238.468 1.864.037.174-.195.27-.351.166-.49-.327-.796-1.536-.51-2.042.03-.05.102-.075.176-.128zM29.004 5.911c-.148-.098-.307-.147-.329-.231-.023-.091.053-.247.136-.321.36-.318.736-.618 1.128-.897.132-.092.406-.157.507-.085.239.166.114.401-.053.573-.224.231-.446.475-.704.662-.198.141-.452.201-.685.299zM19.68 9.177l-.359.335c-.102-.11-.254-.201-.297-.331a24.03 24.03 0 0 1-.453-1.555c-.019-.072.041-.219.101-.243.099-.04.263-.056.338 0 .149.109.319.254.367.418.128.425.195.87.301 1.377zM15.754 17.757c-.329.596-.579 1.207-1.191 1.533-.103.055-.331-.015-.441-.102-.187-.147 0-.27.091-.395.288-.392.553-.8.859-1.177.079-.097.279-.144.415-.131.092.008.168.164.268.272zM19.47 17.808c.172.098.296.128.319.192.038.106.058.272 0 .346-.094.117-.255.184-.394.263-.36.204-.715.42-1.089.594a.5.5 0 0 1-.422-.035c-.209-.147-.136-.383.032-.487.514-.318 1.053-.596 1.553-.873zM38.066 15.106c-.132.295-.318.74-.538 1.167-.034.066-.247.102-.338.063-.084-.037-.176-.205-.159-.295.088-.475.186-.952.335-1.411.045-.14.251-.267.408-.314.058-.017.211.201.284.334.041.075.007.191.007.457zM15.651 11.562c.582.517.513 1.218.577 1.866.012.12-.139.292-.26.379-.063.046-.32-.028-.326-.07a37.104 37.104 0 0 1-.219-1.971c-.004-.056.132-.125.228-.205zM29.253 27.56c.098.026.194.057.288.093.35.16.701.316 1.042.493.162.083.324.188.441.321.134.154-.019.451-.207.41-.634-.136-1.254-.325-1.729-.794-.07-.069-.069-.243-.046-.358.013-.065.136-.11.21-.165zM21.533 11.751c.034.104.149.265.108.366-.213.536-.46 1.059-.711 1.578-.031.064-.162.12-.24.11-.068-.008-.162-.103-.18-.175-.133-.579.286-1.615.754-1.876.048-.027.125-.004.268-.004zM39.672 20.539c-.073-.046-.225-.102-.304-.209-.032-.043.071-.239.159-.301a14.4 14.4 0 0 1 1.204-.789c.112-.065.345-.069.427.003.076.067.087.321.019.414-.348.48-.787.846-1.504.882zM37.262 24.67c-.301-.031-.432-.034-.557-.062-.053-.012-.132-.074-.133-.114a.42.42 0 0 1 .069-.259.495.495 0 0 1 .243-.15c.464-.138.928-.276 1.399-.388.102-.024.318.043.331.1.031.137-.006.303-.06.441-.029.073-.144.134-.232.16-.403.11-.808.207-1.06.272zM23.29 21.355c-.033.14-.087.45-.191.742-.026.073-.229.142-.322.116s-.203-.178-.2-.274c.01-.541.037-1.083.092-1.622.012-.118.162-.221.249-.331.104.109.272.205.299.329.059.279.046.573.073 1.039zM45.035 4.422c0-1.146.28-2.016.84-2.608.567-.598 1.293-.898 2.178-.898s1.589.258 2.111.775c.529.516.793 1.342.793 2.475s-.28 1.99-.841 2.57c-.56.579-1.309.869-2.245.869-.809 0-1.471-.23-1.987-.69-.267-.239-.478-.57-.63-.992-.146-.428-.22-.929-.22-1.502zm2.99-3.41c-.643 0-1.172.283-1.586.85-.407.567-.611 1.398-.611 2.494s.194 1.896.583 2.4c.388.504.904.756 1.547.756.65 0 1.178-.283 1.586-.85.414-.573.621-1.401.621-2.485 0-1.09-.197-1.89-.592-2.4a1.851 1.851 0 0 0-1.548-.765zM52.61 7.569h-.793V.955h.793v3.042h3.105V.955h.793v6.614h-.793V4.092H52.61v3.477zM60.584 7.569h-.124l.831-6.614h.315l2.006 6.113L65.609.955h.315l.831 6.614h-.793l-.659-5.291-1.729 5.291h-.602l-1.748-5.225-.64 5.225zM72.047.955c.121.12.181.274.181.463 0 .157-.035.318-.105.482l-1.71 3.43v2.239h-.793V5.538L67.709.956h.812l1.824 4.261 1.662-3.316c.07-.157.105-.321.105-.491s-.048-.302-.143-.397l.076-.057zM1.347 9.306c.494-.022.976-.033 1.448-.033.483 0 .988.05 1.515.15.539.1 1.066.289 1.582.566a4.11 4.11 0 0 1 1.33 1.049c.37.422.668.982.892 1.682s.337 1.548.337 2.547c0 .999-.168 1.898-.505 2.697-.325.788-.774 1.393-1.347 1.815-1.111.821-2.452 1.232-4.024 1.232-.55 0-1.128-.022-1.734-.067h-.842V9.306h1.347zm.05 11.505c.236.022.533.033.892.033s.628-.006.808-.017c.18-.011.426-.055.741-.133.314-.089.606-.205.875-.35s.55-.355.842-.633c.303-.289.561-.627.774-1.016.483-.91.724-2.098.724-3.563 0-1.043-.129-1.942-.387-2.697-.258-.766-.556-1.332-.892-1.698a3.477 3.477 0 0 0-1.195-.866c-.471-.222-.847-.35-1.128-.383s-.606-.05-.976-.05-.73.017-1.077.05v11.321zM45.308 20.944h-.219V9.29h.572l7.003 10.772V9.29h.219v11.654h-1.229l-6.347-9.656v9.656zM63.25 9.29h.219v6.66c0 1.743-.348 3.025-1.044 3.846-.696.81-1.605 1.215-2.727 1.215-.707 0-1.307-.061-1.801-.183a3.893 3.893 0 0 1-1.398-.716c-.898-.688-1.347-2.076-1.347-4.162V9.29h1.398v6.643c0 2.02.309 3.369.926 4.046.314.333.64.561.976.683.348.122.763.183 1.246.183 1.078 0 1.936-.388 2.576-1.165.651-.788.976-2.037.976-3.746V9.291zM69.212 20.944h-1.397V9.456h-2.912V9.29h7.239v.166h-2.929v11.488z"/></symbol><symbol id="icon-map-point" viewBox="0 0 23 32"><path d="M11.733 0c6.47 0 11.733 5.131 11.733 11.438a11.15 11.15 0 0 1-2.341 6.857l-8.669 11.382c-.022.028-.055.038-.079.063a.887.887 0 0 1-1.367-.063c-2.496-3.247-7.072-9.312-8.832-11.599l-.001-.003-.011-.014a11.162 11.162 0 0 1-2.167-6.623C-.001 5.131 5.263 0 11.732 0zm0 17.609c3.483 0 6.33-2.775 6.33-6.171s-2.847-6.171-6.33-6.171-6.33 2.775-6.33 6.171 2.847 6.171 6.33 6.171z"/></symbol><symbol id="icon-menu-burger" viewBox="0 0 60 32"><path d="M2 0h56a2 2 0 1 1 0 4H2a2 2 0 1 1 0-4zM2 14h56a2 2 0 1 1 0 4H2a2 2 0 1 1 0-4zM2 28h56a2 2 0 1 1 0 4H2a2 2 0 1 1 0-4z"/></symbol><symbol id="icon-phone" viewBox="0 0 32 32"><path d="M29.43 20.474c-1.959 0-3.882-.299-5.705-.886-.893-.297-1.991-.025-2.536.521l-3.598 2.648c-4.172-2.171-6.743-4.676-8.939-8.713l2.636-3.416a2.475 2.475 0 0 0 .636-2.554 17.325 17.325 0 0 1-.912-5.571C11.012 1.123 9.86 0 8.445 0H2.569C1.153 0 .001 1.123.001 2.503c0 15.819 13.202 28.689 29.43 28.689 1.416 0 2.568-1.123 2.568-2.503v-5.712c0-1.38-1.152-2.503-2.568-2.503z"/></symbol><symbol id="icon-star-filled" viewBox="0 0 34 32"><path fill="#edd501" style="fill:var(--color4,#edd501)" d="M15.381 2.79c.504-1.552 2.699-1.552 3.204 0l2.51 7.726a1.684 1.684 0 0 0 1.602 1.164h8.124c1.632 0 2.31 2.088.99 3.047l-6.572 4.775a1.685 1.685 0 0 0-.612 1.883l2.51 7.726c.504 1.552-1.272 2.842-2.592 1.883l-6.572-4.775a1.684 1.684 0 0 0-1.98 0l-6.572 4.775c-1.32.959-3.096-.331-2.592-1.883l2.51-7.726a1.685 1.685 0 0 0-.612-1.883l-6.572-4.775c-1.32-.959-.642-3.047.99-3.047h8.124c.73 0 1.376-.47 1.602-1.164l2.51-7.726z"/></symbol><symbol id="icon-star-stroke" viewBox="0 0 34 32"><path fill="none" stroke="#edd501" style="stroke:var(--color4,#edd501)" stroke-width="1.684" d="M15.901 3.05c.252-.776 1.35-.776 1.602 0l2.51 7.726a2.526 2.526 0 0 0 2.403 1.746h8.124c.816 0 1.155 1.044.495 1.523l-6.572 4.775a2.527 2.527 0 0 0-.918 2.824l2.51 7.726c.252.776-.636 1.421-1.296.941l-6.572-4.775a2.528 2.528 0 0 0-2.97 0l-6.572 4.775c-.66.48-1.548-.166-1.296-.941l2.51-7.726a2.525 2.525 0 0 0-.918-2.824l-6.572-4.775c-.66-.479-.321-1.523.495-1.523h8.124a2.528 2.528 0 0 0 2.403-1.746l2.51-7.726z"/></symbol><symbol id="icon-twitter" viewBox="0 0 32 32"><path d="M32 5.441c-1.19.583-2.458.97-3.78 1.158 1.36-.908 2.398-2.334 2.886-4.053a12.307 12.307 0 0 1-4.16 1.775C25.742 2.888 24.026 2 22.154 2c-3.632 0-6.556 3.295-6.556 7.335 0 .581.044 1.14.152 1.672-5.454-.297-10.28-3.219-13.522-7.671a8.059 8.059 0 0 0-.898 3.707c0 2.54 1.17 4.791 2.914 6.095-1.054-.022-2.088-.364-2.964-.903v.08c0 3.564 2.274 6.524 5.256 7.206a5.905 5.905 0 0 1-1.72.241c-.42 0-.844-.027-1.242-.125.85 2.904 3.262 5.039 6.13 5.109-2.232 1.952-5.066 3.128-8.134 3.128-.538 0-1.054-.027-1.57-.101 2.906 2.095 6.35 3.291 10.064 3.291 12.072 0 18.672-11.178 18.672-20.868 0-.324-.01-.637-.024-.948C30.014 8.215 31.108 6.925 32 5.441z"/></symbol><symbol id="icon-logo-hover" viewBox="0 0 72 32"><path d="M26.886.015c-8.879 0-16.076 7.157-16.076 15.986s7.198 15.984 16.076 15.984c8.879 0 16.076-7.156 16.076-15.984S35.764.015 26.886.015zm.192 19.49c-2.021 0-3.658-1.623-3.658-3.624s1.637-3.625 3.658-3.625c2.02 0 3.658 1.623 3.658 3.625s-1.638 3.624-3.658 3.624z"/><path fill="#3c322d" style="fill:var(--color2,#3c322d)" d="M42.865 15.997c0 .261-.008.522 0 .783.09 2.652-.746 5.042-2.089 7.296-.45.756-.88 1.525-1.268 2.314-.32.649-.765 1.104-1.456 1.37-.387.148-.745.405-1.068.669-1.49 1.218-3.181 2.091-4.989 2.705-1.201.408-2.438.767-3.743.751-.389-.005-.779.114-1.168.115s-.779-.124-1.165-.107c-1.682.071-3.241-.441-4.789-.979-1.689-.587-3.18-1.514-4.583-2.618-1.98-1.558-3.391-3.52-4.428-5.765-.559-1.21-1.014-2.46-1.142-3.803-.021-.223-.096-.444-.162-.66-.47-1.507-.2-2.985.091-4.486.223-1.148.452-2.283.886-3.373 1.146-2.884 2.967-5.245 5.488-7.1C19.382 1.564 21.734.615 24.292.207c2.935-.468 5.8-.131 8.581.963 1.387.548 2.696 1.241 3.839 2.16 1.066.856 2.028 1.858 2.937 2.882.823.928 1.408 2.034 1.93 3.162.816 1.762 1.347 3.586 1.293 5.546-.012.361-.004.72-.004 1.079zm-1.126-3.57c-.081-.616-.132-1.329-.284-2.021-.433-1.992-1.598-3.547-3.152-4.818-.881-.722-1.843-1.349-2.79-1.988-.321-.216-.694-.415-1.068-.481-.963-.176-1.937-.34-2.914-.389-1.695-.086-3.217-.518-4.496-1.685-.942-.858-1.967-.941-2.946-.186-1.109.855-2.372 1.357-3.659 1.855-.943.364-1.851.823-2.758 1.276-.758.379-1.199.971-1.189 1.867.006.503-.227.923-.697 1.201-.392.234-.769.492-1.128.773-1.003.781-1.785 1.662-1.953 3.028-.133 1.08-.464 2.148-1.211 3.038-.25.306-.405.677-.446 1.069-.069.807-.041 1.625-.02 2.437.005.218.101.451.213.642.258.452.539.891.842 1.315.734 1.01 1.373 2.046 1.52 3.329.143 1.243.75 2.256 1.776 3.03 1.487 1.121 2.921 2.31 4.43 3.402.811.587 1.68 1.102 2.75 1.221s2.119.407 3.078.941c.201.107.422.174.649.197 1.353.144 2.607-.187 3.795-.814.373-.197.757-.375 1.142-.545.929-.411 1.959-.682 2.768-1.255.9-.639 1.862-.922 2.896-1.101.447-.078.811-.26 1.102-.588.346-.39.668-.802 1.029-1.178.374-.389.644-.803.709-1.356.1-.849.467-1.599.933-2.32.789-1.217 1.237-2.562 1.47-3.992.062-.375.096-.693-.091-1.022-.543-.953-.321-2.035-.493-3.049-.087-.548.113-1.148.197-1.831h-.003zm-6.533-9.518c-.229-.251-.302-.364-.406-.434-.187-.128-.392-.233-.591-.344-1.704-.95-3.569-1.412-5.476-1.743-.383-.067-.786-.037-1.176-.022-.102.004-.223.101-.288.19-.03.04.037.181.093.248.424.5.977.877 1.6 1.092 1.076.383 2.208.594 3.351.623.485.013.967.104 1.45.169.411.057.822.126 1.441.222zM20.733 30.284c-1.143-.925-2.145-1.752-3.166-2.557a118.888 118.888 0 0 0-2.57-1.952c-.097-.072-.25-.07-.462-.124 1.04 1.729 4.513 4.354 6.198 4.633zM13.029 8.699c.689-.522 1.328-1.07 2.028-1.524.982-.633 1.358-1.421 1.126-2.773-.697.564-1.194 1.243-1.731 1.861-.568.651-.989 1.426-1.462 2.155-.037.059.023.175.04.281zm23.256 19.722c-.643-.044-1.291.069-1.695.412-.766.652-1.677.98-2.603 1.306-.486.171-.945.422-1.404.661-.063.033-.075.209-.062.314.005.035.176.092.247.068.832-.281 1.692-.507 2.48-.883.966-.459 1.874-1.04 2.799-1.579.096-.053.148-.18.238-.299zm-24.576-9.04c-.185.54-.149.838-.032 1.157.323.883.518 1.814 1.099 2.585.215.286.26.925.657.787.35-.12-.059-.626-.084-.968-.092-1.304-.784-2.355-1.641-3.561zm6.24-16.239.086.128c.48-.176.965-.343 1.441-.532 1.034-.41 2.065-.829 3.092-1.254.208-.086.397-.225.574-.366.049-.04.04-.175.025-.258-.008-.037-.106-.078-.162-.08a1.017 1.017 0 0 0-.284.047c-1.397.393-2.715.974-3.975 1.68-.295.165-.534.421-.798.636zm24.533 14.005c.084-.097.15-.138.154-.183.137-1.421-.016-2.829-.213-4.233-.01-.07-.108-.172-.176-.18-.074-.01-.19.051-.235.117a.748.748 0 0 0-.134.352 13.346 13.346 0 0 0 .23 3.46c.045.23.237.432.373.668zm-31.11-3.921c.545-.206.627-.578.685-.914.143-.82.498-1.61.381-2.477-.57 1.034-1.076 2.083-1.066 3.391zm13.194 18.008c-1.222-.535-1.553-.591-2.641-.441.461.173.876.448 1.294.452.435.007.906.534 1.348-.011z"/><path fill="#3c322d" style="fill:var(--color2,#3c322d)" d="M27.086 20.593c-.836-.015-1.409-.361-1.834-1.03-.396-.623-1.055-.947-1.658-1.331-.761-.485-1.379-1.031-1.555-2.012-.122-.666.02-1.243.293-1.769.229-.439.638-.848 1.067-1.109.466-.283.852-.55 1.067-1.073.243-.602.857-.638 1.4-.746.512-.102 1.031-.167 1.536-.295.689-.174 1.315-.12 1.819.411.39.412.844.708 1.351.958.528.26.701.564.536 1.107-.112.368-.004.619.135.914.152.321.308.647.412.986.347 1.128-.053 2.077-1.121 2.58-.663.311-1.17.726-1.335 1.456-.066.294-.251.461-.514.538-.528.153-1.065.279-1.598.416zm3.507-4.729c.017-1.987-1.505-3.576-3.484-3.579-1.776 0-3.562 1.19-3.631 3.468-.056 1.824 1.479 3.524 3.481 3.53 2.438.012 3.587-1.663 3.634-3.42zm-7.135 1.9c0-.255.025-.385-.004-.503-.262-1.079-.433-2.149.162-3.189.043-.075-.056-.229-.089-.346-.117.037-.258.045-.346.117-.983.8-1.422 2.718.277 3.92zm3.653-5.977c.412.149.647.255.892.321.907.238 1.68.664 2.218 1.451.106.155.243.385.446.209.108-.095.143-.382.081-.526-.084-.191-.275-.43-.458-.468-.498-.103-.771-.46-1.095-.772-.546-.519-1.156-.682-2.085-.216zm-.055 7.823-.012-.075c-.261 0-.525-.022-.782.01-.133.016-.252.127-.378.195.114.1.213.257.345.29.703.175 1.411.213 2.104-.055.118-.047.25-.106.325-.201.066-.08.087-.222.074-.331-.005-.04-.169-.101-.25-.087-.476.074-.95.167-1.422.254h-.003zm3.592-2.038c.486-.09.704-.361.732-.779a7.024 7.024 0 0 0-.016-1.056c-.008-.093-.138-.175-.213-.263-.108.101-.328.238-.308.299.198.609-.215 1.155-.196 1.798v.001zM35.101 20.322c-.028.014-.141.108-.263.121-.111.013-.273-.024-.342-.101a17.407 17.407 0 0 1-.991-1.199c-.081-.108-.114-.401-.068-.427.152-.083.449-.17.515-.098.391.428.736.897 1.089 1.358.035.046.024.126.06.346zM18.53 23.669c.181.014.538.025.887.084.086.015.203.183.203.283s-.1.274-.187.295c-.677.166-1.351.208-1.951-.24a.294.294 0 0 1-.095-.246c.013-.067.118-.16.189-.165.26-.022.521-.01.955-.01zM39.757 9.562l.256.139c-.073.129-.117.336-.223.373-.488.177-.988.319-1.497.423-.146.028-.359-.114-.494-.231-.156-.136-.064-.431.133-.461.576-.088 1.158-.155 1.824-.242zM22.515 26.541c.271.125.497.16.608.294.304.372.581.764.83 1.173.122.195.011.406-.194.463-.112.031-.316-.06-.399-.161a12.741 12.741 0 0 1-.918-1.238c-.065-.102.036-.308.072-.532zM33.146 11.018c.017-.114 0-.244.054-.294.073-.066.23-.12.305-.085.103.048.169.181.24.286.196.291.39.584.577.883.084.133.196.276.203.42a.564.564 0 0 1-.175.398c-.057.051-.289.018-.346-.053-.375-.471-.824-.912-.858-1.554zM34.312 6.01c-.081.481-.114.836-.208 1.175a.97.97 0 0 1-.325.465c-.107.086-.295.074-.446.105-.012-.14-.057-.286-.031-.419.079-.41.185-.815.28-1.222.007-.032.005-.065.015-.096.075-.245.236-.432.495-.331.13.051.191.276.22.323zM27.318 9.141c.228.028.523.043.804.111.096.023.238.194.221.268-.029.132-.14.306-.257.345a.991.991 0 0 1-.571.003c-.325-.102-.627-.136-.95-.002-.213.088-.412-.005-.469-.214-.076-.281.138-.417.377-.457.256-.042.52-.035.846-.053zM32.378 22.97c-.092.398-.162.748-.261 1.089-.019.067-.162.158-.222.142-.108-.026-.26-.11-.282-.198a1.311 1.311 0 0 1-.016-.578c.076-.35.151-.682.008-1.039-.068-.171-.048-.444.214-.443.142 0 .345.173.409.316.103.229.11.498.15.71zM28.386 22.868c-.053.093-.078.203-.148.251-.427.291-.855.584-1.305.838-.115.065-.316.025-.463-.018-.214-.063-.259-.342-.081-.455.492-.312.986-.621 1.493-.908.081-.047.244.004.348.055.071.035.102.149.155.237zM22.944 4.155c.07.04.2.075.218.139.17.618.333 1.238.468 1.864.038.174-.195.27-.351.166-.491-.326-.796-1.536-.51-2.042.03-.051.102-.076.176-.128zM29.004 5.911c-.148-.097-.307-.147-.329-.231-.023-.091.053-.248.136-.321.36-.318.736-.618 1.127-.897.132-.092.405-.157.507-.085.239.166.113.401-.053.573-.224.231-.446.475-.704.662-.197.14-.451.201-.684.299zM19.68 9.177l-.358.336c-.102-.11-.254-.201-.297-.331a24.03 24.03 0 0 1-.453-1.555c-.019-.072.04-.218.102-.244.099-.04.263-.056.338 0 .149.109.319.255.368.418.127.425.194.869.3 1.377zM15.755 17.757c-.329.597-.579 1.207-1.191 1.533-.103.054-.331-.016-.441-.102-.187-.147 0-.27.091-.395.288-.391.553-.8.858-1.176.079-.096.278-.144.415-.131.092.008.168.163.268.272zM19.47 17.808c.171.098.296.127.319.192.038.106.058.272 0 .346-.094.117-.255.184-.394.263-.36.204-.715.42-1.088.594a.503.503 0 0 1-.422-.034c-.209-.147-.135-.383.032-.487.514-.319 1.054-.597 1.553-.874zM38.067 15.106c-.133.295-.318.74-.538 1.168-.034.066-.248.102-.338.063-.084-.037-.176-.205-.159-.295.089-.475.186-.952.335-1.411.046-.14.251-.267.408-.314.059-.017.212.201.284.334.042.075.008.19.008.457zM15.651 11.562c.582.517.513 1.218.577 1.866.012.12-.139.293-.26.379-.063.046-.32-.028-.326-.07a37.104 37.104 0 0 1-.219-1.971c-.004-.056.133-.125.228-.205zM29.253 27.56c.097.026.193.057.288.093.35.16.701.316 1.042.493.162.083.325.187.441.32.134.154-.019.451-.207.41-.634-.136-1.254-.325-1.729-.794-.07-.069-.069-.243-.046-.358.014-.065.136-.11.21-.165zM21.533 11.751c.033.104.149.265.108.366a23.71 23.71 0 0 1-.711 1.578c-.031.064-.162.12-.24.11-.068-.008-.162-.103-.18-.175-.133-.579.286-1.615.754-1.876.048-.027.126-.004.269-.004zM39.672 20.539c-.073-.046-.225-.102-.304-.209-.032-.043.07-.239.159-.301.39-.281.789-.549 1.204-.79.112-.064.345-.069.427.004.076.067.087.32.019.414-.348.48-.787.846-1.504.883zM37.262 24.67c-.301-.031-.432-.034-.557-.062-.053-.011-.132-.074-.133-.114a.423.423 0 0 1 .069-.258.498.498 0 0 1 .243-.15c.464-.138.928-.276 1.4-.389.102-.024.317.043.331.101.031.137-.006.303-.06.442-.029.073-.144.134-.232.16-.403.109-.808.207-1.06.272zM23.29 21.355c-.033.14-.087.45-.191.743-.026.072-.229.142-.322.116s-.203-.179-.2-.274c.01-.541.037-1.083.092-1.622.012-.118.162-.221.249-.331.104.109.272.205.299.33.059.28.047.573.074 1.039zM45.035 4.422c0-1.146.28-2.016.84-2.608.567-.598 1.294-.897 2.179-.897s1.59.258 2.111.775c.529.517.794 1.342.794 2.475s-.28 1.99-.841 2.57-1.309.869-2.245.869c-.809 0-1.472-.23-1.988-.689-.267-.24-.478-.57-.63-.992-.146-.429-.219-.929-.219-1.503zm2.99-3.41c-.644 0-1.172.283-1.586.85-.408.567-.611 1.398-.611 2.494s.194 1.896.583 2.4c.388.504.904.756 1.547.756.65 0 1.178-.283 1.586-.85.414-.573.62-1.402.62-2.485 0-1.09-.197-1.89-.592-2.4a1.848 1.848 0 0 0-1.547-.765zM52.61 7.568h-.793V.954h.793v3.042h3.105V.954h.793v6.614h-.793V4.091H52.61v3.477zM60.584 7.568h-.124l.831-6.614h.316l2.005 6.113L65.609.954h.315l.831 6.614h-.793l-.659-5.291-1.728 5.291h-.602l-1.748-5.225-.641 5.225zM72.048.955c.121.12.181.274.181.463 0 .158-.035.318-.105.482l-1.71 3.429v2.239h-.793V5.537L67.71.955h.812l1.824 4.261L72.009 1.9c.07-.157.105-.321.105-.491s-.048-.302-.143-.397l.077-.057zM1.347 9.306c.494-.022.976-.033 1.448-.033.483 0 .987.05 1.515.15.539.1 1.066.288 1.583.566.528.267.971.616 1.33 1.049.37.422.668.982.892 1.681s.337 1.548.337 2.547c0 .999-.168 1.898-.505 2.697-.325.788-.774 1.393-1.347 1.815-1.111.822-2.453 1.232-4.024 1.232-.55 0-1.128-.022-1.734-.067H0V9.306h1.347zm.05 11.505c.236.022.533.033.892.033s.629-.006.808-.016c.18-.011.426-.056.741-.134.314-.089.606-.205.875-.35s.55-.355.842-.633c.303-.288.561-.627.774-1.015.483-.91.724-2.098.724-3.563 0-1.043-.129-1.942-.387-2.697-.258-.766-.555-1.332-.892-1.698a3.477 3.477 0 0 0-1.195-.866c-.471-.222-.848-.35-1.128-.383s-.606-.05-.976-.05c-.371 0-.73.016-1.077.05v11.322zM45.308 20.944h-.219V9.29h.572l7.003 10.772V9.29h.219v11.654h-1.229l-6.346-9.657v9.656zM63.25 9.29h.219v6.66c0 1.743-.348 3.025-1.044 3.846-.695.81-1.605 1.216-2.727 1.216-.707 0-1.307-.061-1.801-.183a3.909 3.909 0 0 1-1.398-.716c-.898-.688-1.346-2.076-1.346-4.162v-6.66h1.398v6.643c0 2.02.309 3.369.926 4.046.314.333.639.56.976.682.348.122.763.183 1.246.183 1.077 0 1.936-.389 2.576-1.165.651-.788.977-2.037.977-3.746V9.291zM69.211 20.944h-1.397V9.456h-2.912V9.29h7.239v.166h-2.929v11.488z"/><path d="M48.554 24.294a.23.23 0 0 1-.063.145c-.028.034-.067.072-.116.112s-.11.086-.183.135-.15.1-.232.152-.17.106-.263.161l-.277.163c-.091.054-.183.106-.277.159a11.444 11.444 0 0 0-.377.221c-.032.021-.067.049-.104.086l-.128.128a3.59 3.59 0 0 1-.402.344.445.445 0 0 1-.27.087.349.349 0 0 1-.152-.033c-.048-.022-.071-.057-.071-.105 0-.03.012-.057.036-.08a1.692 1.692 0 0 1 .241-.203c.04-.028.084-.057.132-.087s.104-.066.167-.109l.179-.12c.042-.028.066-.043.071-.048.09-.067.171-.134.242-.202s.132-.136.184-.206a.78.78 0 0 0 .159-.48.801.801 0 0 0-.074-.278c-.024-.049-.052-.093-.086-.129s-.071-.054-.112-.054c-.045 0-.088.009-.132.026s-.086.04-.129.068-.086.061-.126.097l-.122.11c-.079.076-.155.16-.229.252s-.152.197-.234.313c-.04.058-.075.117-.105.179s-.054.12-.075.178c-.02.057-.035.111-.046.162s-.016.094-.018.129l-.009.183c-.003.043-.021.077-.053.102s-.071.037-.117.037c-.067 0-.115-.026-.144-.077s-.044-.13-.044-.236l.002-.076.005-.123.006-.145.005-.143a3.007 3.007 0 0 1 .01-.185c.005-.094.01-.184.017-.27l.022-.263c.008-.089.018-.181.029-.277l.037-.308a24.598 24.598 0 0 1 .078-.602c.013-.092.029-.183.046-.272a3.7 3.7 0 0 1 .062-.268l.018-.06a.801.801 0 0 1 .076-.169c.016-.024.032-.036.05-.036l.04-.001a.396.396 0 0 1 .048.001c.017.001.034.006.05.011s.031.016.045.031.024.032.032.05c.008.019.013.038.016.056l.006.053.001.043c0 .021-.008.06-.022.117l-.053.229c-.037.166-.073.338-.108.513a6.927 6.927 0 0 0-.106.714l-.022.214-.018.224a3.393 3.393 0 0 0-.01.219c.046-.071.094-.152.143-.242s.109-.178.181-.262.142-.161.212-.228.146-.13.228-.19c.164-.119.315-.179.455-.179.085-.003.164.016.239.058s.14.097.195.165a.749.749 0 0 1 .173.478c0 .053-.022.149-.065.288-.021.068-.042.121-.063.157l-.056.097c.055-.036.115-.075.181-.116l.199-.126.197-.124.178-.109.053-.034.109-.07.129-.085c.04-.027.077-.05.112-.071a.432.432 0 0 1 .121-.067c.027 0 .046.011.057.033.01.02.015.043.015.069z"/><path d="m50.429 23.923-.002.088c-.001.033-.004.072-.007.115l-.01.129-.012.139-.011.126-.007.093a6.62 6.62 0 0 1-.188 1.244 2.626 2.626 0 0 1-.344.828.715.715 0 0 1-.63.348c-.176 0-.352-.035-.531-.105a1.236 1.236 0 0 1-.448-.288c-.073-.086-.109-.146-.109-.179 0-.037.011-.08.033-.127.024-.046.05-.069.08-.069.016 0 .03.009.042.027.05.071.099.128.145.17.198.176.455.263.772.263.125 0 .234-.059.328-.179.048-.058.09-.121.126-.187s.069-.137.097-.21.053-.147.076-.223.042-.153.06-.232l.035-.174a.706.706 0 0 0 .014-.087c.008-.063.012-.123.016-.181s.009-.115.018-.172a3.233 3.233 0 0 0-.257.147l-.208.125-.167.098c-.098.058-.209.113-.333.165s-.228.078-.308.078c-.14 0-.248-.056-.324-.167s-.114-.24-.114-.386c0-.104.011-.22.033-.348a2.564 2.564 0 0 1 .079-.338l.052-.176.073-.237c.015-.049.031-.092.049-.128s.038-.067.061-.091c.023-.025.05-.043.082-.055s.069-.018.114-.018c.043 0 .077.025.103.074a.306.306 0 0 1 .036.143.16.16 0 0 1-.02.08l-.031.051-.051.083-.049.081a.21.21 0 0 0-.022.05l-.031.094a.765.765 0 0 1-.025.067l-.02.064-.027.086a1.13 1.13 0 0 0-.053.344c0 .06.012.132.036.217.026.088.059.132.103.132.131 0 .289-.038.475-.114.186-.077.354-.178.505-.301s.241-.248.272-.373c.006-.018.01-.045.013-.08l.008-.119c.003-.044.005-.09.006-.138a2.988 2.988 0 0 1 .027-.336c.039-.137.102-.205.187-.205.082 0 .133.021.152.063a.53.53 0 0 1 .031.212zM56.433 24.376a.237.237 0 0 1-.027.109 1.685 1.685 0 0 1-.225.301c-.057.067-.117.133-.181.198s-.132.131-.203.198a3.527 3.527 0 0 1-.405.326c-.126.086-.228.129-.304.129a.288.288 0 0 1-.114-.031.467.467 0 0 1-.223-.237c-.053-.115-.091-.235-.114-.359s-.041-.265-.056-.42a3.432 3.432 0 0 1-.723.924c-.298.271-.606.406-.924.406-.088 0-.155-.047-.201-.141a.636.636 0 0 1-.069-.288c0-.134.011-.234.033-.299.063-.191.134-.369.215-.536a3.267 3.267 0 0 1 .555-.804c.098-.104.191-.179.277-.223.107-.058.261-.087.462-.087.07 0 .129.039.179.116s.086.167.112.27c.026.108.038.193.038.255a4.022 4.022 0 0 0 .144-.709 8.096 8.096 0 0 0 .039-.387l.011-.147c.009-.116.018-.214.027-.294s.021-.132.036-.155c.036-.061.098-.091.187-.091.045 0 .088.01.132.029.046.018.069.043.069.076a.714.714 0 0 1-.01.087l-.028.156-.048.238a9.473 9.473 0 0 0-.066.338c-.001.015-.006.045-.013.089l-.025.142-.025.139a8.233 8.233 0 0 0-.06.419 2.838 2.838 0 0 0-.018.321c0 .086.002.188.007.306.005.119.016.235.033.346s.044.167.078.167c.122 0 .269-.056.442-.167.171-.113.336-.242.496-.389s.3-.285.424-.417c.009-.009.017-.013.025-.013.016 0 .027.012.032.037s.007.049.007.072zm-2.081.141c-.039-.009-.068-.028-.088-.058s-.03-.064-.03-.101c0-.03.005-.074.013-.132s.013-.103.013-.134c0-.027-.007-.057-.022-.09s-.032-.064-.054-.094c-.022-.029-.048-.053-.075-.073s-.054-.03-.081-.03c-.079 0-.186.083-.321.248-.068.085-.131.166-.188.243a3.788 3.788 0 0 0-.384.638c-.088.189-.132.338-.132.447 0 .139.047.208.141.208.084 0 .198-.048.344-.145.15-.103.267-.195.348-.277l.212-.225c.057-.061.102-.11.134-.147s.063-.079.09-.125c.027-.047.053-.098.079-.153z"/><path d="M59.254 24.046c0 .026-.006.051-.016.077s-.026.052-.044.076c-.018.025-.038.048-.059.07s-.044.039-.066.052c-.052.034-.126.064-.222.09s-.214.039-.356.039c-.113 0-.227-.015-.342-.043s-.224-.077-.331-.144c.034.052.056.102.066.149s.014.104.014.17c0 .117-.03.242-.089.375a1.632 1.632 0 0 1-.518.659c-.058.043-.122.081-.191.113s-.142.058-.218.078a2.039 2.039 0 0 1-.485.06c-.058 0-.115-.019-.17-.056s-.104-.083-.147-.136-.078-.111-.104-.172a.427.427 0 0 1-.039-.165c0-.121.016-.236.048-.347s.075-.218.129-.321c.054-.103.117-.204.188-.304s.147-.198.228-.295a1.64 1.64 0 0 1 .333-.304c.063-.041.126-.075.19-.102a.486.486 0 0 1 .183-.039.33.33 0 0 1 .22.077c.031.024.062.055.094.092l.111.125c.013.013.05.033.111.059s.131.051.214.076c.082.024.169.046.26.064s.173.028.248.028.143-.003.205-.008a1.325 1.325 0 0 0 .357-.075 2.38 2.38 0 0 0 .187-.076c.007.023.01.042.01.059zm-1.667.535a.813.813 0 0 0-.048-.291c-.018-.048-.043-.085-.073-.115s-.068-.042-.113-.036c-.068-.027-.125-.055-.17-.085s-.079-.045-.103-.045c-.018 0-.037.006-.058.017s-.042.026-.065.046-.045.042-.068.068a1.41 1.41 0 0 0-.068.082l-.124.159a3.107 3.107 0 0 0-.204.289 2.08 2.08 0 0 0-.094.173c-.013.027-.026.059-.036.096a1.767 1.767 0 0 0-.044.233 1.035 1.035 0 0 0-.005.106c0 .019.007.043.02.07s.031.054.052.08c.022.026.047.048.074.066s.054.027.081.027c.076 0 .141-.003.194-.01a.637.637 0 0 0 .286-.106c.046-.03.1-.068.161-.116.03-.022.059-.048.088-.078a1.987 1.987 0 0 0 .237-.302c.015-.022.028-.05.038-.083a.94.94 0 0 0 .041-.245z"/><path d="M62.618 24.32c0 .028-.005.057-.014.086s-.022.058-.036.086c-.014.029-.03.058-.048.085l-.051.08c-.043.067-.094.135-.152.204a3.176 3.176 0 0 1-.39.387 2.74 2.74 0 0 1-.205.154l-.153.101a1 1 0 0 1-.3.133.74.74 0 0 1-.176.02.46.46 0 0 1-.301-.094c-.039-.031-.073-.072-.102-.122s-.054-.105-.076-.166a2.498 2.498 0 0 1-.095-.397c-.013-.084-.026-.158-.038-.224s-.026-.122-.041-.167c-.016-.046-.035-.08-.057-.105s-.051-.037-.087-.037c-.028 0-.055.003-.08.009s-.052.018-.079.036c-.028.018-.058.043-.09.076s-.071.076-.115.129c-.044.053-.094.119-.151.197l-.199.277a3.542 3.542 0 0 1-.287.351c-.053.057-.105.106-.155.149s-.095.07-.134.083c-.131-.028-.197-.191-.197-.489 0-.079.009-.199.027-.359.009-.073.019-.149.031-.229a3.217 3.217 0 0 1 .106-.47c.023-.075.05-.145.082-.209.015-.03.03-.053.047-.07s.033-.029.05-.038c.017-.009.035-.013.053-.016s.038-.003.057-.003c.024 0 .045.016.064.049s.028.078.028.136a.542.542 0 0 1-.034.197 2.3 2.3 0 0 0-.033.106 2.06 2.06 0 0 0-.036.13l-.03.134a3.572 3.572 0 0 0-.056.298.91.91 0 0 0-.01.13c0 .027.005.054.013.083.042-.005.11-.067.205-.187l.162-.201c.059-.073.123-.153.191-.241.05-.066.101-.126.151-.183s.102-.106.155-.149c.053-.042.11-.076.171-.1s.127-.037.2-.037c.077 0 .142.016.193.05s.092.08.124.139c.031.058.055.129.073.211s.031.172.041.27l.026.248a.907.907 0 0 0 .048.219c.024.065.058.117.103.158s.108.06.192.06c.064 0 .131-.015.201-.045s.144-.071.221-.124c.077-.053.157-.115.24-.186s.167-.149.256-.235c.034-.032.072-.074.112-.124s.081-.098.121-.144c.04-.046.076-.086.111-.118s.062-.049.083-.049c.009 0 .024.005.043.013.018.007.028.022.028.043z"/><path d="M66.187 24.11c0 .057-.014.121-.043.193s-.067.139-.116.202c-.063.08-.133.16-.211.239a4.004 4.004 0 0 1-.503.427 2.599 2.599 0 0 1-.256.161c-.082.046-.16.081-.233.107s-.137.039-.192.039a.423.423 0 0 1-.318-.133c-.038-.041-.07-.089-.095-.144s-.048-.113-.066-.174c-.019-.061-.034-.124-.046-.188l-.033-.189-.126.191c-.048.071-.096.143-.147.216s-.104.143-.156.211a1.868 1.868 0 0 1-.32.336 1.238 1.238 0 0 1-.415.224.804.804 0 0 1-.234.035c-.117 0-.21-.048-.277-.145s-.098-.208-.098-.335c0-.059.005-.122.014-.186.01-.065.021-.129.034-.193l.037-.189c.012-.062.02-.12.025-.175.001-.022.003-.05.003-.084l.001-.117v-.111l.002-.096c.001-.031.004-.061.007-.09s.008-.061.013-.094c.009-.05.029-.095.06-.132s.08-.056.147-.056c.137 0 .205.095.205.283a.735.735 0 0 1-.01.108 3.77 3.77 0 0 1-.052.252c-.01.044-.018.086-.026.128l-.045.174a2.614 2.614 0 0 0-.072.33.928.928 0 0 0-.011.142.355.355 0 0 0 .036.153c.012.025.028.045.048.062s.043.025.07.025c.079 0 .159-.022.239-.066s.157-.098.231-.163c.073-.064.143-.134.207-.207.065-.074.122-.141.171-.202.048-.061.095-.133.142-.217s.092-.17.134-.26c.043-.09.083-.18.122-.269l.105-.241c.07-.164.133-.245.187-.245.04 0 .067.006.08.019s.02.038.02.077c0 .03-.003.07-.01.121s-.014.104-.023.159-.017.108-.023.159a1.133 1.133 0 0 0-.009.21l.003.113a1.447 1.447 0 0 0 .023.212.929.929 0 0 0 .088.248c.023.043.051.08.084.11s.07.046.114.046c.08 0 .171-.024.274-.071s.206-.109.314-.184c.107-.075.213-.159.319-.252s.204-.185.295-.276l.108-.107a1.04 1.04 0 0 1 .1-.089.354.354 0 0 1 .074-.047c.018-.009.027-.003.027.016z"/><path d="M68.074 23.95c0 .055-.015.097-.045.126s-.064.054-.103.077c-.049.022-.104.043-.164.06a3.33 3.33 0 0 1-.376.084c-.064.01-.125.018-.183.024l-.199.018a8.908 8.908 0 0 0-.385.042.7.7 0 0 0-.135.033c-.031.135-.064.265-.099.387a4.011 4.011 0 0 0-.111.495l-.028.178-.024.174a.817.817 0 0 0-.01.117c0 .061.01.107.029.138s.041.055.064.073l.064.053c.02.017.029.041.029.074 0 .021-.01.041-.03.06s-.045.037-.073.051a.428.428 0 0 1-.175.046c-.043 0-.082-.012-.116-.036s-.064-.054-.087-.093c-.024-.038-.043-.081-.056-.13s-.02-.1-.02-.152c0-.068.006-.142.018-.219.012-.079.027-.159.045-.24l.057-.251.057-.256.024-.11c.009-.037.015-.074.022-.107l.016-.084.007-.04c0-.024-.009-.042-.026-.054s-.037-.019-.061-.019c-.018 0-.045.001-.08.005l-.113.011c-.039.005-.077.008-.112.011s-.062.005-.078.005c-.053 0-.099-.003-.136-.01s-.067-.019-.09-.037c-.023-.018-.04-.043-.052-.075s-.016-.073-.016-.124c0-.021.01-.037.029-.049s.043-.021.07-.026c.027-.006.057-.009.088-.009l.083-.001c.019 0 .051-.002.095-.006a18.45 18.45 0 0 1 .276-.024c.043-.003.076-.006.095-.006l.031-.002a.114.114 0 0 0 .037-.012c.012-.006.024-.018.034-.033s.019-.038.027-.066l.038-.162.046-.19.046-.187.038-.155c.013-.042.025-.086.035-.134l.027-.143c.008-.048.017-.094.028-.139s.024-.086.04-.123c.032-.077.086-.116.159-.116.11 0 .165.061.165.183a.829.829 0 0 1-.049.261c-.071.226-.124.412-.159.56s-.051.245-.051.295c0 .055.028.083.083.083a5.491 5.491 0 0 0 .367-.014c.061-.005.124-.011.191-.019l.225-.025c.059-.008.117-.016.171-.027l.15-.03.123-.028a.821.821 0 0 1 .137-.025.091.091 0 0 1 .04-.001c.01.002.02.008.027.018a.121.121 0 0 1 .008.049zM50.058 28.932a.547.547 0 0 1-.028.118c-.009.024-.018.048-.029.072s-.023.047-.037.066c-.026.039-.059.084-.099.134a3.387 3.387 0 0 1-.786.707 1.163 1.163 0 0 1-.192.092.52.52 0 0 1-.185.037c-.052 0-.1-.008-.142-.022s-.081-.043-.116-.084c-.035-.041-.066-.097-.093-.169s-.05-.164-.069-.277c-.009-.048-.016-.099-.024-.153s-.013-.108-.02-.162l-.019-.155a1.537 1.537 0 0 0-.021-.132c-.009-.038-.017-.068-.027-.09s-.021-.033-.032-.033c-.019 0-.047.016-.082.049s-.076.08-.123.142c-.048.062-.098.136-.154.222s-.114.183-.175.29c-.121.214-.222.377-.306.489s-.16.167-.228.167a.204.204 0 0 1-.208-.145 1.943 1.943 0 0 1-.06-.493c-.005-.224-.021-.398-.048-.519s-.063-.182-.106-.182c-.027 0-.066.024-.117.072s-.11.115-.174.2a6.212 6.212 0 0 0-.439.676l-.071.123a5.04 5.04 0 0 1-.082.139c-.027.048-.054.091-.08.133s-.048.076-.068.103c-.043.063-.095.094-.156.094-.113 0-.187-.058-.223-.174l-.022-.072c-.006-.018-.009-.038-.012-.056-.003-.018-.005-.039-.006-.061l-.001-.087a2.738 2.738 0 0 1 .042-.477 5.554 5.554 0 0 0 .047-.408l.017-.213.015-.191a.765.765 0 0 1 .022-.139c.005-.018.015-.039.031-.063s.035-.047.057-.068c.022-.022.044-.04.068-.056s.045-.023.063-.023c.031 0 .057.007.077.021s.037.033.049.057c.013.024.022.052.027.084s.008.065.008.1c0 .036-.004.08-.01.134a6.293 6.293 0 0 1-.061.368l-.037.192a7.733 7.733 0 0 0-.081.491 1.17 1.17 0 0 0-.007.117c.019-.019.044-.048.074-.087s.063-.084.098-.136.073-.109.112-.172c.04-.063.08-.126.12-.192l.095-.156a5.017 5.017 0 0 1 .222-.342c.037-.052.071-.096.103-.132.063-.071.127-.126.194-.163s.137-.056.21-.056c.071 0 .133.028.186.084s.088.128.106.218c.009.042.016.09.022.144s.01.112.014.171.009.119.012.179l.012.17c.005.052.011.095.019.129s.016.061.026.082c.009.02.017.034.025.042s.013.012.018.012c.028 0 .076-.059.143-.176l.114-.199.139-.241a2.977 2.977 0 0 1 .333-.463c.056-.062.108-.111.158-.147s.09-.054.125-.054a.418.418 0 0 1 .138.027.3.3 0 0 1 .059.032c.017.013.03.027.039.042.022.036.038.076.048.122s.017.097.022.156c.005.058.009.124.012.197s.01.152.019.24c.021.186.053.325.097.416s.106.137.188.137c.031 0 .07-.01.118-.031s.098-.048.152-.082c.053-.033.108-.071.163-.113s.106-.085.154-.126.093-.084.137-.126l.133-.129.138-.137.15-.152c.018-.018.034-.027.049-.027.024-.003.035.016.035.055z"/><path d="M53.058 28.967c0 .018-.002.039-.007.064a.75.75 0 0 1-.046.148.236.236 0 0 1-.03.054l-.039.048-.057.066-.068.075a18.402 18.402 0 0 1-.348.321c-.089.079-.18.15-.274.211s-.192.11-.294.146a.944.944 0 0 1-.332.053.561.561 0 0 1-.323-.116c-.049-.038-.091-.082-.127-.134s-.061-.109-.076-.172a15.879 15.879 0 0 1-.284.286c-.052.049-.105.097-.16.143s-.112.088-.17.127a1.564 1.564 0 0 1-.41.182.54.54 0 0 1-.135.019c-.061 0-.113-.019-.157-.057s-.08-.085-.11-.139a.775.775 0 0 1-.086-.343c0-.098.014-.199.042-.301s.065-.203.11-.3c.046-.097.096-.19.152-.277s.111-.166.164-.235a2.137 2.137 0 0 1 .442-.403c.084-.055.165-.101.245-.135s.152-.051.214-.051h.099a.907.907 0 0 1 .205.024c.033.008.063.02.089.037.013.009.029.026.047.051s.034.053.05.085c.015.031.029.063.039.094s.016.056.016.074a.807.807 0 0 1-.033.197l-.066.28a1.12 1.12 0 0 0-.03.26.535.535 0 0 0 .095.299c.031.043.068.079.112.106s.094.041.149.041c.09 0 .184-.019.279-.057s.192-.09.289-.156c.097-.066.194-.143.291-.23s.192-.18.286-.278l.039-.046a1.155 1.155 0 0 1 .117-.122c.019-.017.033-.026.042-.026.032.001.048.032.048.093zm-1.986-.185c0-.026-.001-.057-.005-.094s-.012-.068-.029-.091-.037-.035-.06-.034l-.071.001c-.052 0-.102.008-.151.025s-.096.039-.142.068c-.046.029-.09.063-.133.1a1.749 1.749 0 0 0-.344.413 2.82 2.82 0 0 0-.195.386c-.026.065-.046.128-.06.187s-.022.115-.022.164a.435.435 0 0 0 .024.13c.008.023.019.043.033.059s.032.025.053.025a.683.683 0 0 0 .257-.065c.14-.059.267-.141.381-.244s.211-.223.291-.358c.115-.21.173-.434.173-.672z"/><path d="M55.062 28.874c0 .024-.007.05-.02.079s-.031.059-.053.09-.048.063-.076.095l-.085.095c-.022.026-.046.051-.071.077l-.086.087-.113.112-.152.148c-.052.05-.11.104-.173.16s-.128.11-.192.164l-.189.154-.159.129-.306.249a4.092 4.092 0 0 1-.286.211c-.186.125-.333.187-.442.187a.366.366 0 0 1-.129-.029c-.05-.019-.076-.046-.076-.08 0-.097.037-.173.109-.228.071-.052.183-.108.335-.17.149-.059.26-.117.335-.174s.112-.134.112-.232c0-.049-.051-.149-.154-.299-.05-.076-.096-.145-.135-.208s-.073-.121-.102-.171a.671.671 0 0 1-.085-.328c0-.1.019-.204.056-.314.018-.063.047-.125.086-.189s.083-.12.128-.17c.046-.049.093-.089.141-.119s.089-.044.125-.043c.131 0 .197.077.197.232a.288.288 0 0 1-.065.174 1.41 1.41 0 0 1-.179.176l-.095.083-.064.06c0 .077.024.168.071.272.026.05.054.106.087.165s.07.124.114.192.08.13.109.184l.067.119c.001.006.01.009.025.009.021 0 .057-.015.108-.046s.112-.071.183-.122a6.01 6.01 0 0 0 .695-.598l.161-.163c.051-.051.088-.09.113-.117a.214.214 0 0 1 .041-.041c.012 0 .023.005.033.013s.02.021.028.035a.225.225 0 0 1 .019.045c.006.016.009.03.009.043z"/><path d="M56.989 28.521c0 .055-.015.097-.045.126s-.064.054-.103.077c-.049.022-.104.043-.164.06a3.33 3.33 0 0 1-.376.084c-.064.01-.125.018-.183.024l-.199.018a8.908 8.908 0 0 0-.385.042.7.7 0 0 0-.135.033c-.031.135-.064.265-.099.387a4.011 4.011 0 0 0-.111.495l-.028.178-.024.174a.817.817 0 0 0-.01.117c0 .061.01.107.029.138s.041.055.064.073l.064.053c.02.017.029.041.029.074 0 .021-.01.041-.03.06s-.045.037-.073.051a.464.464 0 0 1-.174.046c-.043 0-.082-.012-.116-.036s-.064-.054-.087-.093a.552.552 0 0 1-.076-.282c0-.068.006-.142.018-.219.012-.079.027-.159.045-.24l.057-.251.057-.256.024-.11c.009-.037.015-.074.022-.107l.016-.084.007-.04c0-.024-.009-.042-.026-.054s-.038-.019-.061-.019c-.018 0-.045.001-.08.005l-.113.011c-.039.005-.077.008-.112.011s-.062.005-.078.005c-.053 0-.099-.003-.136-.01s-.067-.019-.09-.037c-.023-.018-.04-.043-.052-.075s-.016-.073-.016-.124c0-.021.01-.037.029-.049s.043-.021.07-.026c.027-.006.057-.009.088-.009l.083-.001c.019 0 .051-.002.095-.006a15.076 15.076 0 0 1 .278-.024c.044-.003.076-.006.095-.006l.031-.002a.114.114 0 0 0 .037-.012c.012-.006.024-.018.034-.033s.019-.038.027-.066l.038-.162.046-.19.046-.187.038-.155c.013-.042.025-.086.035-.134l.027-.143c.008-.048.017-.094.028-.139s.024-.086.04-.123c.032-.077.086-.116.159-.116.11 0 .165.061.165.183a.829.829 0 0 1-.049.261c-.071.226-.124.412-.159.56s-.051.245-.051.295c0 .055.028.083.083.083a5.491 5.491 0 0 0 .367-.014c.061-.005.124-.011.191-.019l.225-.025c.059-.008.117-.016.171-.027l.15-.03.123-.028a.821.821 0 0 1 .137-.025.091.091 0 0 1 .04-.001c.011.002.02.008.027.018a.121.121 0 0 1 .008.049z"/><path d="M59.098 28.947a.295.295 0 0 1-.049.118 3.995 3.995 0 0 1-.565.653c-.108.1-.22.194-.337.281s-.234.162-.353.225c-.119.064-.238.112-.356.146s-.232.05-.342.049c-.238 0-.423-.069-.555-.208s-.197-.347-.197-.627c0-.234.036-.461.108-.681s.196-.432.37-.636a.973.973 0 0 1 .24-.19.636.636 0 0 1 .286-.087c.012 0 .028.001.049.005s.043.008.067.016.047.016.069.028a.16.16 0 0 1 .053.041c.042.048.075.097.1.147s.038.106.041.167a.657.657 0 0 1-.117.405c-.044.07-.102.141-.173.214s-.158.153-.259.238c-.064.053-.135.113-.214.177s-.172.133-.282.204c0 .144.044.254.13.33s.207.112.358.112c.085 0 .17-.011.257-.033s.171-.052.255-.088c.084-.037.164-.079.242-.125.079-.048.152-.095.22-.144.126-.092.241-.184.344-.276s.204-.188.306-.289l.121-.121c.073-.064.126-.096.159-.096.018 0 .026.015.026.043zm-1.705-.444c-.001-.022-.005-.044-.01-.066s-.013-.041-.023-.057-.022-.029-.036-.039a.075.075 0 0 0-.047-.014c-.079.005-.158.053-.237.144a1.567 1.567 0 0 0-.266.473c-.012.04-.025.083-.036.125a2.251 2.251 0 0 0-.05.238l.214-.161a2.544 2.544 0 0 0 .292-.258c.037-.038.071-.078.102-.12.03-.042.054-.085.072-.129s.026-.09.025-.135z"/><path d="m60.908 28.686-.002.039a.217.217 0 0 1-.033.098c-.009.014-.019.02-.032.02l-.045-.001a16.013 16.013 0 0 0-.066-.003l-.066-.003-.045-.001a1.057 1.057 0 0 0-.71.313 2.375 2.375 0 0 0-.482.746 5.585 5.585 0 0 0-.145.416c-.012.042-.021.079-.026.11s-.013.066-.026.102c-.003.012-.016.023-.038.035s-.048.021-.075.03a.855.855 0 0 1-.13.031c-.103.006-.161-.101-.174-.319-.005-.059-.006-.113-.005-.162a3.099 3.099 0 0 1 .017-.284l.016-.168.027-.268a11.055 11.055 0 0 1 .078-.6c.015-.093.03-.17.047-.231.016-.07.039-.122.068-.156s.071-.053.128-.056c.015 0 .031.004.048.012a.211.211 0 0 1 .084.075c.01.015.015.028.016.04a1.276 1.276 0 0 1-.018.258c-.008.048-.016.094-.027.142l-.031.136a3.754 3.754 0 0 0-.076.394l-.022.181-.029.24.066-.145.05-.106.041-.082c.012-.024.027-.048.042-.075l.049-.086.067-.114c.104-.173.216-.314.335-.423s.234-.187.344-.235a.9.9 0 0 1 .308-.096c.039-.001.085.001.139.007s.105.017.154.033.091.038.126.064c.037.026.054.058.054.095zM63.419 28.874c0 .024-.007.05-.02.079s-.031.059-.053.09-.048.063-.076.095l-.085.095c-.022.026-.046.051-.071.077l-.086.087-.113.112-.152.148c-.052.05-.11.104-.173.16s-.128.11-.192.164l-.189.154-.159.129-.306.249a4.092 4.092 0 0 1-.286.211c-.186.125-.333.187-.442.187a.366.366 0 0 1-.129-.029c-.05-.019-.076-.046-.076-.08 0-.097.037-.173.109-.228.071-.052.183-.108.335-.17.149-.059.26-.117.335-.174s.112-.134.112-.232c0-.049-.051-.149-.154-.299-.05-.076-.096-.145-.135-.208s-.073-.121-.102-.171a.671.671 0 0 1-.085-.328c0-.1.019-.204.056-.314.018-.063.047-.125.086-.189s.083-.12.128-.17c.046-.049.093-.089.141-.119s.089-.044.125-.043c.131 0 .197.077.197.232a.288.288 0 0 1-.065.174 1.41 1.41 0 0 1-.179.176l-.095.083-.064.06c0 .077.024.168.071.272.026.05.054.106.087.165s.07.124.114.192.08.13.109.184l.067.119c.001.006.01.009.025.009.021 0 .057-.015.108-.046s.112-.071.183-.122a6.01 6.01 0 0 0 .695-.598l.161-.163c.051-.051.088-.09.113-.117a.214.214 0 0 1 .041-.041c.012 0 .023.005.033.013s.02.021.028.035a.225.225 0 0 1 .019.045c.007.016.009.03.009.043z"/></symbol></defs></svg>