<svg aria-hidden="true" style="position: absolute; width: 0; height: 0; overflow: hidden;" version="1.1" xmlns="http://www.w3.org/2000/svg" xmlns:xlink="http://www.w3.org/1999/xlink">
<defs>
<symbol id="icon-circle-ratio62" viewBox="0 0 32 32">
<path d="M32 16c0 8.837-7.163 16-16 16s-16-7.163-16-16c0-8.837 7.163-16 16-16s16 7.163 16 16zM6.186 16c0 5.42 4.394 9.814 9.814 9.814s9.814-4.394 9.814-9.814c0-5.42-4.394-9.814-9.814-9.814s-9.814 4.394-9.814 9.814z"></path>
</symbol>
<symbol id="icon-circle-ratio40" viewBox="0 0 32 32">
<path d="M32 16c0 8.837-7.163 16-16 16s-16-7.163-16-16c0-8.837 7.163-16 16-16s16 7.163 16 16zM9.599 16c0 3.535 2.866 6.401 6.401 6.401s6.401-2.866 6.401-6.401c0-3.535-2.866-6.401-6.401-6.401s-6.401 2.866-6.401 6.401z"></path>
</symbol>
<symbol id="icon-circle-ratio73" viewBox="0 0 32 32">
<path d="M32 16c0 8.837-7.163 16-16 16s-16-7.163-16-16c0-8.837 7.163-16 16-16s16 7.163 16 16zM4.318 16c0 6.452 5.23 11.682 11.682 11.682s11.682-5.23 11.682-11.682c0-6.452-5.23-11.682-11.682-11.682s-11.682 5.23-11.682 11.682z"></path>
</symbol>
<symbol id="icon-close-cross" viewBox="0 0 32 32">
<path d="M23.884 6.706l-7.884 7.884-7.884-7.884c-0.19-0.174-0.439-0.267-0.696-0.261s-0.502 0.11-0.684 0.292c-0.182 0.182-0.286 0.427-0.292 0.684s0.088 0.506 0.261 0.696l7.88 7.884-7.882 7.882c-0.096 0.092-0.173 0.202-0.226 0.324s-0.081 0.253-0.083 0.386 0.023 0.265 0.073 0.388c0.050 0.123 0.124 0.235 0.218 0.329s0.206 0.169 0.329 0.219 0.255 0.075 0.388 0.074c0.133-0.002 0.264-0.029 0.386-0.082s0.232-0.13 0.324-0.226l7.886-7.882 7.884 7.884c0.19 0.174 0.439 0.267 0.696 0.262s0.502-0.11 0.684-0.292c0.182-0.182 0.286-0.427 0.292-0.684s-0.088-0.506-0.262-0.696l-7.884-7.884 7.884-7.886c0.096-0.092 0.173-0.202 0.226-0.324s0.081-0.253 0.083-0.386c0.002-0.133-0.023-0.265-0.073-0.388s-0.124-0.235-0.218-0.329c-0.094-0.094-0.206-0.169-0.329-0.219s-0.255-0.075-0.388-0.074-0.264 0.029-0.386 0.082c-0.122 0.053-0.232 0.13-0.324 0.226v0.002z"></path>
</symbol>
<symbol id="icon-facebook" viewBox="0 0 32 32">
<path d="M22.512 0.007l-3.617-0.007c-4.064 0-6.69 3.091-6.69 7.875v3.631h-3.637c-0.314 0-0.569 0.292-0.569 0.653v5.261c0 0.361 0.255 0.652 0.569 0.652h3.637v13.275c0 0.36 0.254 0.652 0.569 0.652h4.745c0.314 0 0.569-0.292 0.569-0.652v-13.275h4.252c0.314 0 0.569-0.292 0.569-0.652l0.002-5.261c0-0.173-0.060-0.339-0.167-0.461s-0.252-0.191-0.402-0.191h-4.254v-3.078c0-1.479 0.307-2.23 1.987-2.23l2.437-0.001c0.314 0 0.568-0.292 0.568-0.652v-4.885c0-0.36-0.254-0.652-0.568-0.652z"></path>
</symbol>
<symbol id="icon-horiz-bar" viewBox="0 0 560 32">
<path stroke-linejoin="miter" stroke-linecap="butt" stroke-miterlimit="4" stroke-width="32" d="M560 16h-560"></path>
</symbol>
<symbol id="icon-instagram" viewBox="0 0 32 32">
<path d="M16.316 32c-0.106 0-0.212 0-0.319-0-2.508 0.006-4.826-0.058-7.080-0.195-2.066-0.126-3.953-0.84-5.455-2.065-1.45-1.182-2.44-2.781-2.942-4.75-0.438-1.715-0.461-3.398-0.483-5.026-0.016-1.168-0.033-2.553-0.036-3.96 0.003-1.414 0.020-2.798 0.036-3.966 0.022-1.628 0.045-3.311 0.483-5.026 0.503-1.97 1.493-3.568 2.942-4.75 1.503-1.225 3.389-1.939 5.456-2.065 2.254-0.137 4.572-0.201 7.086-0.195 2.509-0.005 4.826 0.058 7.080 0.195 2.066 0.126 3.953 0.84 5.455 2.065 1.45 1.182 2.44 2.781 2.943 4.75 0.437 1.715 0.461 3.398 0.483 5.026 0.016 1.168 0.033 2.553 0.036 3.96v0.006c-0.003 1.408-0.020 2.792-0.036 3.96-0.022 1.628-0.045 3.311-0.483 5.026-0.503 1.97-1.493 3.568-2.943 4.75-1.502 1.225-3.389 1.939-5.455 2.065-2.159 0.131-4.376 0.195-6.768 0.195zM15.997 29.5c2.468 0.006 4.733-0.056 6.934-0.19 1.563-0.095 2.917-0.602 4.027-1.507 1.026-0.837 1.732-1.991 2.1-3.431 0.364-1.428 0.385-2.96 0.406-4.442 0.016-1.16 0.032-2.535 0.036-3.929-0.004-1.394-0.020-2.769-0.036-3.929-0.020-1.482-0.041-3.015-0.406-4.443-0.367-1.44-1.074-2.594-2.1-3.431-1.11-0.905-2.465-1.412-4.027-1.507-2.201-0.134-4.467-0.196-6.928-0.19-2.467-0.006-4.733 0.056-6.934 0.19-1.563 0.095-2.917 0.602-4.027 1.507-1.026 0.837-1.732 1.991-2.1 3.431-0.364 1.428-0.385 2.96-0.406 4.443-0.016 1.161-0.032 2.537-0.036 3.932 0.003 1.389 0.020 2.765 0.036 3.926 0.020 1.482 0.041 3.015 0.406 4.442 0.367 1.44 1.074 2.594 2.1 3.431 1.11 0.905 2.465 1.412 4.027 1.507 2.201 0.134 4.467 0.197 6.928 0.191zM15.937 23.812c-4.308 0-7.813-3.505-7.813-7.812s3.505-7.813 7.813-7.813c4.308 0 7.813 3.505 7.813 7.813s-3.505 7.812-7.813 7.812zM15.937 10.687c-2.929 0-5.313 2.383-5.313 5.313s2.383 5.312 5.313 5.312c2.93 0 5.313-2.383 5.313-5.312s-2.383-5.313-5.313-5.313zM24.625 5.687c-1.035 0-1.875 0.839-1.875 1.875s0.84 1.875 1.875 1.875c1.036 0 1.875-0.839 1.875-1.875s-0.839-1.875-1.875-1.875z"></path>
</symbol>
<symbol id="icon-list-disc" viewBox="0 0 32 32">
<path fill="#fff" style="fill: var(--color1, #fff); stroke: var(--color2, #f3848c)" stroke="#f3848c" stroke-linejoin="miter" stroke-linecap="butt" stroke-miterlimit="4" stroke-width="1.3333" d="M31.333 16c0 8.468-6.865 15.333-15.333 15.333s-15.333-6.865-15.333-15.333c0-8.468 6.865-15.333 15.333-15.333s15.333 6.865 15.333 15.333z"></path>
<path fill="#fff" style="fill: var(--color1, #fff)" d="M29.333 16c0 7.364-5.97 13.333-13.333 13.333s-13.333-5.97-13.333-13.333c0-7.364 5.97-13.333 13.333-13.333s13.333 5.97 13.333 13.333z"></path>
<path fill="none" stroke="#f3848c" style="stroke: var(--color2, #f3848c)" stroke-linejoin="miter" stroke-linecap="round" stroke-miterlimit="4" stroke-width="0.6667" d="M29 16c0 7.18-5.82 13-13 13s-13-5.82-13-13c0-7.18 5.82-13 13-13s13 5.82 13 13z"></path>
<path fill="#000" style="fill: var(--color3, #000)" d="M9.333 10.953c0 1.413 1.031 2.586 2.381 2.814v4.329c0 0.126 0.050 0.247 0.139 0.337s0.21 0.14 0.337 0.14h7.62c0.126 0 0.247-0.050 0.337-0.14s0.139-0.21 0.139-0.337v-4.329c1.349-0.228 2.38-1.401 2.38-2.814 0-1.576-1.281-2.857-2.857-2.857h-1.078c-0.603-0.862-1.602-1.429-2.732-1.429s-2.129 0.566-2.732 1.429h-1.078c-0.758 0.001-1.484 0.302-2.019 0.838s-0.837 1.262-0.838 2.019zM12.666 17.144h6.668v0.475h-6.668v-0.475zM12.191 9.048h0.616c-0.093 0.309-0.14 0.63-0.14 0.952 0 0.126 0.050 0.247 0.139 0.337s0.21 0.139 0.337 0.139c0.126 0 0.247-0.050 0.337-0.139s0.14-0.21 0.14-0.337c0-1.313 1.068-2.381 2.381-2.381s2.381 1.068 2.381 2.381c0 0.126 0.050 0.247 0.14 0.337s0.21 0.139 0.337 0.139 0.247-0.050 0.337-0.139c0.089-0.089 0.139-0.21 0.139-0.337 0-0.331-0.050-0.65-0.141-0.952h0.616c1.051 0 1.905 0.854 1.905 1.905-0.001 0.504-0.201 0.988-0.557 1.345s-0.84 0.558-1.344 0.56l-0.003-0c-0.063-0-0.125 0.012-0.183 0.036s-0.11 0.059-0.155 0.104c-0.044 0.044-0.080 0.097-0.104 0.155s-0.036 0.12-0.036 0.183l0.001 0.005v2.853h-6.668v-2.855l0-0.002c0-0.063-0.012-0.125-0.036-0.183s-0.059-0.111-0.103-0.155c-0.044-0.044-0.097-0.079-0.155-0.103s-0.12-0.036-0.183-0.036l-0.003 0c-0.504-0.001-0.988-0.202-1.344-0.559s-0.557-0.841-0.557-1.345c0-1.051 0.854-1.905 1.905-1.905zM21.237 20.477h-10.474c-0.126 0-0.247 0.050-0.337 0.139s-0.139 0.21-0.139 0.337c0 0.126 0.050 0.247 0.139 0.337s0.21 0.139 0.337 0.139h10.474c0.126 0 0.247-0.050 0.337-0.139s0.139-0.21 0.139-0.337c0-0.126-0.050-0.247-0.139-0.337s-0.21-0.139-0.337-0.139zM21.237 21.906h-10.474c-0.126 0-0.247 0.050-0.337 0.139s-0.139 0.21-0.139 0.337c0 0.126 0.050 0.247 0.139 0.337s0.21 0.139 0.337 0.139h10.474c0.126 0 0.247-0.050 0.337-0.139s0.139-0.21 0.139-0.337c0-0.126-0.050-0.247-0.139-0.337s-0.21-0.139-0.337-0.139zM18.856 23.347h-5.713c-0.126 0-0.247 0.050-0.337 0.139s-0.139 0.21-0.139 0.337c0 0.126 0.050 0.247 0.139 0.337s0.21 0.139 0.337 0.139h5.713c0.126 0 0.247-0.050 0.337-0.139s0.139-0.21 0.139-0.337c0-0.126-0.050-0.247-0.139-0.337s-0.211-0.139-0.337-0.139z"></path>
</symbol>
<symbol id="icon-logo" viewBox="0 0 72 32">
<path d="M42.865 15.997c0 0.261-0.008 0.521 0 0.783 0.090 2.653-0.746 5.043-2.089 7.296-0.45 0.756-0.881 1.524-1.268 2.314-0.32 0.649-0.765 1.104-1.456 1.37-0.386 0.148-0.744 0.405-1.068 0.669-1.49 1.218-3.181 2.091-4.989 2.705-1.201 0.408-2.438 0.767-3.743 0.751-0.389-0.004-0.779 0.114-1.169 0.115s-0.779-0.124-1.165-0.108c-1.682 0.071-3.241-0.441-4.789-0.979-1.689-0.586-3.18-1.513-4.583-2.617-1.98-1.558-3.39-3.52-4.428-5.765-0.559-1.211-1.014-2.46-1.143-3.804-0.021-0.223-0.096-0.444-0.162-0.66-0.47-1.507-0.2-2.985 0.091-4.486 0.223-1.148 0.452-2.283 0.885-3.373 1.146-2.884 2.967-5.245 5.488-7.1 2.102-1.545 4.454-2.494 7.012-2.902 2.935-0.468 5.8-0.131 8.58 0.963 1.387 0.548 2.696 1.241 3.839 2.159 1.066 0.856 2.028 1.858 2.937 2.883 0.823 0.928 1.408 2.034 1.93 3.162 0.815 1.762 1.347 3.586 1.293 5.546-0.012 0.362-0.003 0.721-0.004 1.080zM41.738 12.427c-0.081-0.616-0.132-1.329-0.284-2.022-0.433-1.992-1.599-3.548-3.152-4.818-0.882-0.722-1.843-1.349-2.791-1.988-0.321-0.216-0.694-0.415-1.068-0.481-0.963-0.176-1.938-0.34-2.914-0.389-1.695-0.085-3.217-0.518-4.496-1.685-0.942-0.858-1.967-0.941-2.946-0.186-1.109 0.855-2.372 1.357-3.659 1.854-0.943 0.364-1.851 0.823-2.758 1.276-0.758 0.379-1.199 0.971-1.188 1.867 0.006 0.503-0.227 0.923-0.697 1.201-0.392 0.234-0.769 0.492-1.128 0.773-1.003 0.781-1.785 1.662-1.953 3.027-0.133 1.080-0.464 2.148-1.212 3.038-0.25 0.306-0.405 0.677-0.446 1.069-0.069 0.807-0.041 1.625-0.020 2.437 0.006 0.217 0.101 0.451 0.213 0.642 0.258 0.452 0.54 0.891 0.843 1.315 0.734 1.010 1.373 2.046 1.52 3.329 0.143 1.244 0.75 2.257 1.776 3.030 1.487 1.121 2.92 2.311 4.43 3.402 0.811 0.588 1.68 1.102 2.75 1.221s2.119 0.408 3.078 0.941c0.201 0.107 0.422 0.174 0.649 0.197 1.354 0.144 2.606-0.187 3.795-0.814 0.373-0.197 0.756-0.375 1.142-0.546 0.929-0.412 1.959-0.682 2.768-1.255 0.9-0.639 1.863-0.923 2.896-1.101 0.446-0.077 0.811-0.26 1.102-0.588 0.347-0.39 0.668-0.802 1.029-1.179 0.374-0.389 0.643-0.802 0.709-1.356 0.1-0.849 0.467-1.599 0.933-2.319 0.788-1.217 1.237-2.562 1.47-3.992 0.061-0.375 0.096-0.692-0.092-1.023-0.543-0.953-0.321-2.035-0.493-3.049-0.087-0.548 0.113-1.148 0.197-1.832l-0.002 0.001zM35.206 2.909c-0.229-0.251-0.302-0.364-0.406-0.434-0.187-0.128-0.392-0.233-0.591-0.344-1.704-0.95-3.569-1.412-5.476-1.743-0.383-0.067-0.786-0.037-1.176-0.022-0.102 0.004-0.223 0.102-0.288 0.19-0.030 0.040 0.037 0.18 0.093 0.248 0.424 0.5 0.977 0.878 1.601 1.092 1.076 0.383 2.208 0.594 3.351 0.623 0.484 0.013 0.967 0.104 1.45 0.169 0.411 0.058 0.822 0.127 1.442 0.223zM20.733 30.284c-1.143-0.925-2.146-1.752-3.166-2.556-0.844-0.666-1.707-1.309-2.57-1.951-0.097-0.072-0.25-0.070-0.462-0.124 1.040 1.728 4.513 4.353 6.198 4.632zM13.029 8.699c0.69-0.521 1.328-1.070 2.028-1.524 0.982-0.633 1.358-1.421 1.126-2.773-0.697 0.564-1.194 1.244-1.731 1.861-0.568 0.651-0.989 1.426-1.462 2.155-0.037 0.059 0.023 0.175 0.040 0.281zM36.285 28.421c-0.643-0.044-1.291 0.069-1.695 0.412-0.766 0.652-1.677 0.98-2.604 1.306-0.487 0.171-0.945 0.422-1.404 0.661-0.063 0.033-0.075 0.209-0.062 0.313 0.004 0.035 0.176 0.092 0.247 0.069 0.832-0.281 1.692-0.507 2.48-0.882 0.967-0.459 1.874-1.040 2.799-1.579 0.097-0.054 0.148-0.181 0.239-0.299zM11.709 19.382c-0.185 0.54-0.148 0.838-0.032 1.156 0.322 0.882 0.518 1.814 1.1 2.585 0.215 0.286 0.26 0.925 0.657 0.787 0.35-0.12-0.060-0.627-0.084-0.968-0.092-1.304-0.784-2.355-1.641-3.561zM17.949 3.142l0.086 0.129c0.481-0.176 0.966-0.343 1.442-0.532 1.034-0.41 2.065-0.829 3.092-1.254 0.207-0.087 0.397-0.225 0.574-0.366 0.049-0.040 0.041-0.175 0.025-0.258-0.008-0.037-0.106-0.078-0.162-0.080-0.096 0.002-0.192 0.018-0.284 0.047-1.397 0.393-2.714 0.974-3.975 1.68-0.295 0.165-0.534 0.422-0.798 0.636zM42.482 17.147c0.084-0.097 0.151-0.138 0.155-0.183 0.136-1.421-0.016-2.829-0.213-4.233-0.010-0.071-0.109-0.172-0.176-0.18-0.074-0.010-0.19 0.051-0.235 0.117-0.074 0.104-0.12 0.225-0.134 0.352-0.074 1.158 0.003 2.321 0.23 3.46 0.045 0.23 0.237 0.432 0.373 0.668zM11.372 13.227c0.545-0.206 0.627-0.578 0.685-0.915 0.142-0.82 0.498-1.61 0.381-2.477-0.57 1.035-1.075 2.083-1.066 3.392h-0zM24.565 31.234c-1.222-0.535-1.553-0.591-2.641-0.441 0.461 0.173 0.876 0.448 1.294 0.452 0.435 0.006 0.907 0.534 1.348-0.011h-0z"></path>
<path d="M27.085 20.593c-0.836-0.015-1.409-0.361-1.835-1.030-0.396-0.624-1.055-0.947-1.658-1.332-0.761-0.484-1.379-1.030-1.555-2.012-0.122-0.665 0.020-1.244 0.293-1.769 0.229-0.439 0.638-0.847 1.068-1.108 0.466-0.283 0.852-0.55 1.067-1.073 0.243-0.602 0.857-0.638 1.4-0.746 0.512-0.102 1.031-0.167 1.536-0.295 0.69-0.174 1.315-0.12 1.819 0.411 0.389 0.412 0.844 0.708 1.351 0.958 0.527 0.26 0.701 0.564 0.536 1.107-0.112 0.369-0.004 0.62 0.135 0.914 0.152 0.321 0.308 0.647 0.412 0.986 0.347 1.128-0.052 2.077-1.122 2.58-0.663 0.311-1.17 0.726-1.335 1.456-0.066 0.294-0.251 0.461-0.514 0.537-0.529 0.153-1.066 0.28-1.599 0.417zM30.593 15.864c0.017-1.987-1.505-3.576-3.484-3.579-1.776 0-3.562 1.189-3.631 3.469-0.056 1.824 1.48 3.524 3.481 3.53 2.437 0.012 3.587-1.663 3.634-3.42zM23.459 17.764c0-0.255 0.025-0.385-0.004-0.503-0.262-1.079-0.433-2.148 0.162-3.188 0.043-0.075-0.056-0.229-0.089-0.346-0.117 0.037-0.258 0.045-0.346 0.117-0.984 0.799-1.422 2.718 0.277 3.92zM27.111 11.787c0.412 0.149 0.647 0.255 0.892 0.321 0.907 0.238 1.68 0.664 2.218 1.451 0.106 0.155 0.243 0.385 0.446 0.209 0.108-0.094 0.143-0.382 0.081-0.526-0.084-0.191-0.275-0.43-0.458-0.468-0.498-0.103-0.771-0.46-1.095-0.771-0.546-0.519-1.156-0.682-2.085-0.215zM27.055 19.609l-0.012-0.075c-0.261 0-0.525-0.022-0.782 0.009-0.132 0.016-0.252 0.127-0.378 0.195 0.114 0.1 0.213 0.257 0.345 0.29 0.703 0.175 1.411 0.213 2.104-0.055 0.118-0.046 0.25-0.106 0.324-0.201 0.066-0.080 0.087-0.223 0.074-0.331-0.005-0.040-0.169-0.101-0.25-0.088-0.476 0.074-0.95 0.167-1.422 0.254l-0.002 0.001zM30.648 17.571c0.487-0.089 0.704-0.361 0.733-0.779 0.021-0.352 0.016-0.705-0.015-1.056-0.008-0.093-0.138-0.175-0.213-0.263-0.108 0.101-0.328 0.238-0.308 0.299 0.198 0.609-0.215 1.155-0.196 1.798v0.001z"></path>
<path d="M35.101 20.323c-0.028 0.014-0.141 0.107-0.263 0.12-0.111 0.013-0.273-0.024-0.342-0.101-0.346-0.386-0.682-0.783-0.991-1.199-0.081-0.109-0.114-0.401-0.068-0.426 0.152-0.083 0.449-0.17 0.516-0.098 0.391 0.427 0.736 0.897 1.089 1.357 0.035 0.046 0.024 0.125 0.060 0.346z"></path>
<path d="M18.53 23.668c0.181 0.014 0.538 0.025 0.887 0.084 0.087 0.015 0.203 0.183 0.203 0.283s-0.1 0.274-0.187 0.295c-0.677 0.166-1.352 0.207-1.951-0.241-0.034-0.031-0.060-0.070-0.077-0.112s-0.023-0.089-0.019-0.134c0.013-0.067 0.118-0.16 0.189-0.165 0.26-0.022 0.521-0.010 0.955-0.010z"></path>
<path d="M39.757 9.562l0.256 0.139c-0.073 0.129-0.117 0.336-0.223 0.373-0.488 0.177-0.988 0.319-1.497 0.423-0.146 0.028-0.359-0.114-0.494-0.231-0.156-0.136-0.063-0.431 0.133-0.461 0.577-0.088 1.158-0.155 1.824-0.242z"></path>
<path d="M22.515 26.541c0.271 0.125 0.498 0.16 0.608 0.294 0.303 0.372 0.581 0.764 0.83 1.174 0.122 0.195 0.011 0.406-0.194 0.462-0.112 0.031-0.316-0.060-0.399-0.16-0.331-0.394-0.637-0.807-0.918-1.238-0.065-0.102 0.036-0.308 0.072-0.532z"></path>
<path d="M33.146 11.018c0.017-0.114 0-0.244 0.054-0.294 0.073-0.066 0.23-0.12 0.305-0.085 0.103 0.049 0.169 0.182 0.24 0.286 0.196 0.291 0.391 0.584 0.578 0.882 0.084 0.134 0.196 0.276 0.203 0.42 0.008 0.133-0.074 0.306-0.175 0.398-0.056 0.051-0.289 0.018-0.346-0.053-0.375-0.471-0.824-0.913-0.857-1.554z"></path>
<path d="M34.312 6.010c-0.081 0.481-0.114 0.836-0.208 1.175-0.059 0.183-0.172 0.345-0.324 0.465-0.108 0.086-0.295 0.073-0.446 0.105-0.012-0.14-0.056-0.286-0.031-0.419 0.079-0.41 0.185-0.815 0.28-1.222 0.007-0.032 0.005-0.065 0.015-0.096 0.075-0.245 0.236-0.432 0.494-0.331 0.13 0.051 0.191 0.276 0.221 0.323z"></path>
<path d="M27.318 9.141c0.228 0.028 0.523 0.043 0.804 0.111 0.096 0.023 0.238 0.194 0.221 0.268-0.029 0.132-0.14 0.306-0.258 0.345-0.186 0.057-0.385 0.058-0.571 0.003-0.324-0.102-0.627-0.136-0.95-0.002-0.213 0.088-0.412-0.004-0.469-0.214-0.076-0.281 0.137-0.417 0.377-0.457 0.256-0.042 0.52-0.035 0.845-0.054z"></path>
<path d="M32.377 22.97c-0.092 0.398-0.162 0.748-0.262 1.089-0.019 0.067-0.162 0.157-0.222 0.142-0.108-0.026-0.26-0.11-0.282-0.198-0.049-0.189-0.054-0.386-0.016-0.577 0.076-0.35 0.151-0.682 0.008-1.039-0.068-0.171-0.049-0.444 0.214-0.444 0.142 0 0.345 0.173 0.409 0.316 0.103 0.229 0.11 0.499 0.151 0.71z"></path>
<path d="M28.386 22.868c-0.053 0.093-0.078 0.204-0.148 0.251-0.427 0.291-0.855 0.584-1.304 0.838-0.115 0.065-0.316 0.025-0.463-0.018-0.215-0.063-0.259-0.342-0.081-0.455 0.492-0.312 0.986-0.621 1.493-0.908 0.081-0.046 0.243 0.004 0.348 0.055 0.071 0.035 0.101 0.149 0.155 0.237z"></path>
<path d="M22.945 4.155c0.069 0.040 0.2 0.075 0.217 0.139 0.17 0.618 0.333 1.238 0.468 1.864 0.037 0.174-0.195 0.27-0.351 0.166-0.49-0.327-0.796-1.536-0.51-2.042 0.030-0.050 0.102-0.075 0.176-0.128z"></path>
<path d="M29.004 5.911c-0.148-0.098-0.307-0.147-0.329-0.231-0.023-0.091 0.053-0.247 0.136-0.321 0.36-0.318 0.736-0.618 1.128-0.897 0.132-0.092 0.406-0.157 0.507-0.085 0.239 0.166 0.114 0.401-0.053 0.573-0.224 0.231-0.446 0.475-0.704 0.662-0.198 0.141-0.452 0.201-0.685 0.299z"></path>
<path d="M19.68 9.177l-0.359 0.335c-0.102-0.11-0.254-0.201-0.297-0.331-0.172-0.512-0.316-1.033-0.453-1.555-0.019-0.072 0.041-0.219 0.101-0.243 0.099-0.040 0.263-0.056 0.338 0 0.149 0.109 0.319 0.254 0.367 0.418 0.128 0.425 0.195 0.87 0.301 1.377z"></path>
<path d="M15.754 17.757c-0.329 0.596-0.579 1.207-1.191 1.533-0.103 0.055-0.331-0.015-0.441-0.102-0.187-0.147 0-0.27 0.091-0.395 0.288-0.392 0.553-0.8 0.859-1.177 0.079-0.097 0.279-0.144 0.415-0.131 0.092 0.008 0.168 0.164 0.268 0.272z"></path>
<path d="M19.47 17.808c0.172 0.098 0.296 0.128 0.319 0.192 0.038 0.106 0.058 0.272 0 0.346-0.094 0.117-0.255 0.184-0.394 0.263-0.36 0.204-0.715 0.42-1.089 0.594-0.114 0.053-0.32 0.037-0.422-0.035-0.209-0.147-0.136-0.383 0.032-0.487 0.514-0.318 1.053-0.596 1.553-0.873z"></path>
<path d="M38.066 15.106c-0.132 0.295-0.318 0.74-0.538 1.167-0.034 0.066-0.247 0.102-0.338 0.063-0.084-0.037-0.176-0.205-0.159-0.295 0.088-0.475 0.186-0.952 0.335-1.411 0.045-0.14 0.251-0.267 0.408-0.314 0.058-0.017 0.211 0.201 0.284 0.334 0.041 0.075 0.007 0.191 0.007 0.457z"></path>
<path d="M15.651 11.562c0.582 0.517 0.513 1.218 0.577 1.866 0.012 0.12-0.139 0.292-0.26 0.379-0.063 0.046-0.32-0.028-0.326-0.070-0.092-0.654-0.162-1.312-0.219-1.971-0.004-0.056 0.132-0.125 0.228-0.205z"></path>
<path d="M29.253 27.56c0.098 0.026 0.194 0.057 0.288 0.093 0.35 0.16 0.701 0.316 1.042 0.493 0.162 0.083 0.324 0.188 0.441 0.321 0.134 0.154-0.019 0.451-0.207 0.41-0.634-0.136-1.254-0.325-1.729-0.794-0.070-0.069-0.069-0.243-0.046-0.358 0.013-0.065 0.136-0.11 0.21-0.165z"></path>
<path d="M21.533 11.751c0.034 0.104 0.149 0.265 0.108 0.366-0.213 0.536-0.46 1.059-0.711 1.578-0.031 0.064-0.162 0.12-0.24 0.11-0.068-0.008-0.162-0.103-0.18-0.175-0.133-0.579 0.286-1.615 0.754-1.876 0.048-0.027 0.125-0.004 0.268-0.004z"></path>
<path d="M39.672 20.539c-0.073-0.046-0.225-0.102-0.304-0.209-0.032-0.043 0.071-0.239 0.159-0.301 0.39-0.281 0.789-0.549 1.204-0.789 0.112-0.065 0.345-0.069 0.427 0.003 0.076 0.067 0.087 0.321 0.019 0.414-0.348 0.48-0.787 0.846-1.504 0.882z"></path>
<path d="M37.262 24.67c-0.301-0.031-0.432-0.034-0.557-0.062-0.053-0.012-0.132-0.074-0.133-0.114-0.006-0.091 0.018-0.182 0.069-0.259 0.065-0.073 0.149-0.125 0.243-0.15 0.464-0.138 0.928-0.276 1.399-0.388 0.102-0.024 0.318 0.043 0.331 0.1 0.031 0.137-0.006 0.303-0.060 0.441-0.029 0.073-0.144 0.134-0.232 0.16-0.403 0.11-0.808 0.207-1.060 0.272z"></path>
<path d="M23.29 21.355c-0.033 0.14-0.087 0.45-0.191 0.742-0.026 0.073-0.229 0.142-0.322 0.116s-0.203-0.178-0.2-0.274c0.010-0.541 0.037-1.083 0.092-1.622 0.012-0.118 0.162-0.221 0.249-0.331 0.104 0.109 0.272 0.205 0.299 0.329 0.059 0.279 0.046 0.573 0.073 1.039z"></path>
<path d="M45.035 4.422c0-1.146 0.28-2.016 0.84-2.608 0.567-0.598 1.293-0.898 2.178-0.898s1.589 0.258 2.111 0.775c0.529 0.516 0.793 1.342 0.793 2.475s-0.28 1.99-0.841 2.57c-0.56 0.579-1.309 0.869-2.245 0.869-0.809 0-1.471-0.23-1.987-0.69-0.267-0.239-0.478-0.57-0.63-0.992-0.146-0.428-0.22-0.929-0.22-1.502zM48.025 1.012c-0.643 0-1.172 0.283-1.586 0.85-0.407 0.567-0.611 1.398-0.611 2.494s0.194 1.896 0.583 2.4c0.388 0.504 0.904 0.756 1.547 0.756 0.65 0 1.178-0.283 1.586-0.85 0.414-0.573 0.621-1.401 0.621-2.485 0-1.090-0.197-1.89-0.592-2.4-0.389-0.51-0.905-0.765-1.548-0.765z"></path>
<path d="M52.61 7.569h-0.793v-6.614h0.793v3.042h3.105v-3.042h0.793v6.614h-0.793v-3.477h-3.105v3.477z"></path>
<path d="M60.584 7.569h-0.124l0.831-6.614h0.315l2.006 6.113 1.997-6.113h0.315l0.831 6.614h-0.793l-0.659-5.291-1.729 5.291h-0.602l-1.748-5.225-0.64 5.225z"></path>
<path d="M72.047 0.955c0.121 0.12 0.181 0.274 0.181 0.463 0 0.157-0.035 0.318-0.105 0.482l-1.71 3.43v2.239h-0.793v-2.031l-1.911-4.582h0.812l1.824 4.261 1.662-3.316c0.070-0.157 0.105-0.321 0.105-0.491s-0.048-0.302-0.143-0.397l0.076-0.057z"></path>
<path d="M1.347 9.306c0.494-0.022 0.976-0.033 1.448-0.033 0.483 0 0.988 0.050 1.515 0.15 0.539 0.1 1.066 0.289 1.582 0.566 0.527 0.266 0.971 0.616 1.33 1.049 0.37 0.422 0.668 0.982 0.892 1.682s0.337 1.548 0.337 2.547c0 0.999-0.168 1.898-0.505 2.697-0.325 0.788-0.774 1.393-1.347 1.815-1.111 0.821-2.452 1.232-4.024 1.232-0.55 0-1.128-0.022-1.734-0.067h-0.842v-11.638h1.347zM1.397 20.811c0.236 0.022 0.533 0.033 0.892 0.033s0.628-0.006 0.808-0.017c0.18-0.011 0.426-0.055 0.741-0.133 0.314-0.089 0.606-0.205 0.875-0.35s0.55-0.355 0.842-0.633c0.303-0.289 0.561-0.627 0.774-1.016 0.483-0.91 0.724-2.098 0.724-3.563 0-1.043-0.129-1.942-0.387-2.697-0.258-0.766-0.556-1.332-0.892-1.698-0.325-0.366-0.724-0.655-1.195-0.866-0.471-0.222-0.847-0.35-1.128-0.383s-0.606-0.050-0.976-0.050-0.73 0.017-1.077 0.050v11.321z"></path>
<path d="M45.308 20.944h-0.219v-11.654h0.572l7.003 10.772v-10.772h0.219v11.654h-1.229l-6.347-9.656v9.656z"></path>
<path d="M63.25 9.29h0.219v6.66c0 1.743-0.348 3.025-1.044 3.846-0.696 0.81-1.605 1.215-2.727 1.215-0.707 0-1.307-0.061-1.801-0.183-0.494-0.133-0.96-0.372-1.398-0.716-0.898-0.688-1.347-2.076-1.347-4.162v-6.66h1.398v6.643c0 2.020 0.309 3.369 0.926 4.046 0.314 0.333 0.64 0.561 0.976 0.683 0.348 0.122 0.763 0.183 1.246 0.183 1.078 0 1.936-0.388 2.576-1.165 0.651-0.788 0.976-2.037 0.976-3.746v-6.643z"></path>
<path d="M69.212 20.944h-1.397v-11.488h-2.912v-0.166h7.239v0.166h-2.929v11.488z"></path>
</symbol>
<symbol id="icon-map-point" viewBox="0 0 23 32">
<path d="M11.733 0c6.47 0 11.733 5.131 11.733 11.438 0 2.496-0.809 4.867-2.341 6.857l-8.669 11.382c-0.022 0.028-0.055 0.038-0.079 0.063-0.433 0.452-1.058 0.339-1.367-0.063-2.496-3.247-7.072-9.312-8.832-11.599 0 0-0.001-0.002-0.001-0.003l-0.011-0.014c-1.418-1.942-2.167-4.232-2.167-6.623 0-6.307 5.264-11.438 11.733-11.438zM11.733 17.609c3.483 0 6.33-2.775 6.33-6.171s-2.847-6.171-6.33-6.171c-3.483 0-6.33 2.775-6.33 6.171s2.847 6.171 6.33 6.171z"></path>
</symbol>
<symbol id="icon-menu-burger" viewBox="0 0 60 32">
<path d="M2 0h56c1.105 0 2 0.895 2 2s-0.895 2-2 2h-56c-1.105 0-2-0.895-2-2s0.895-2 2-2z"></path>
<path d="M2 14h56c1.105 0 2 0.895 2 2s-0.895 2-2 2h-56c-1.105 0-2-0.895-2-2s0.895-2 2-2z"></path>
<path d="M2 28h56c1.105 0 2 0.895 2 2s-0.895 2-2 2h-56c-1.105 0-2-0.895-2-2s0.895-2 2-2z"></path>
</symbol>
<symbol id="icon-phone" viewBox="0 0 32 32">
<path d="M29.43 20.474c-1.959 0-3.882-0.299-5.705-0.886-0.893-0.297-1.991-0.025-2.536 0.521l-3.598 2.648c-4.172-2.171-6.743-4.676-8.939-8.713l2.636-3.416c0.685-0.667 0.931-1.641 0.636-2.554-0.605-1.786-0.912-3.66-0.912-5.571 0-1.38-1.152-2.503-2.567-2.503h-5.876c-1.416 0-2.568 1.123-2.568 2.503 0 15.819 13.202 28.689 29.43 28.689 1.416 0 2.568-1.123 2.568-2.503v-5.712c0-1.38-1.152-2.503-2.568-2.503z"></path>
</symbol>
<symbol id="icon-star-filled" viewBox="0 0 34 32">
<path fill="#edd501" style="fill: var(--color4, #edd501)" d="M15.381 2.79c0.504-1.552 2.699-1.552 3.204-0l2.51 7.726c0.225 0.694 0.872 1.164 1.602 1.164h8.124c1.632 0 2.31 2.088 0.99 3.047l-6.572 4.775c-0.59 0.429-0.837 1.189-0.612 1.883l2.51 7.726c0.504 1.552-1.272 2.842-2.592 1.883l-6.572-4.775c-0.59-0.429-1.39-0.429-1.98 0l-6.572 4.775c-1.32 0.959-3.096-0.331-2.592-1.883l2.51-7.726c0.225-0.694-0.022-1.454-0.612-1.883l-6.572-4.775c-1.32-0.959-0.642-3.047 0.99-3.047h8.124c0.73 0 1.376-0.47 1.602-1.164l2.51-7.726z"></path>
</symbol>
<symbol id="icon-star-stroke" viewBox="0 0 34 32">
<path fill="none" stroke="#edd501" style="stroke: var(--color4, #edd501)" stroke-linejoin="miter" stroke-linecap="butt" stroke-miterlimit="4" stroke-width="1.6842" d="M15.901 3.050c0.252-0.776 1.35-0.776 1.602 0l2.51 7.726c0.338 1.041 1.308 1.746 2.403 1.746h8.124c0.816 0 1.155 1.044 0.495 1.523l-6.572 4.775c-0.885 0.643-1.256 1.784-0.918 2.824l2.51 7.726c0.252 0.776-0.636 1.421-1.296 0.941l-6.572-4.775c-0.885-0.643-2.084-0.643-2.97 0l-6.572 4.775c-0.66 0.48-1.548-0.166-1.296-0.941l2.51-7.726c0.338-1.041-0.032-2.181-0.918-2.824l-6.572-4.775c-0.66-0.479-0.321-1.523 0.495-1.523h8.124c1.094 0 2.064-0.705 2.403-1.746l2.51-7.726z"></path>
</symbol>
<symbol id="icon-twitter" viewBox="0 0 32 32">
<path d="M32 5.441c-1.19 0.583-2.458 0.97-3.78 1.158 1.36-0.908 2.398-2.334 2.886-4.053-1.268 0.845-2.668 1.442-4.16 1.775-1.204-1.433-2.92-2.321-4.792-2.321-3.632 0-6.556 3.295-6.556 7.335 0 0.581 0.044 1.14 0.152 1.672-5.454-0.297-10.28-3.219-13.522-7.671-0.566 1.098-0.898 2.354-0.898 3.707 0 2.54 1.17 4.791 2.914 6.095-1.054-0.022-2.088-0.364-2.964-0.903 0 0.022 0 0.051 0 0.080 0 3.564 2.274 6.524 5.256 7.206-0.534 0.163-1.116 0.241-1.72 0.241-0.42 0-0.844-0.027-1.242-0.125 0.85 2.904 3.262 5.039 6.13 5.109-2.232 1.952-5.066 3.128-8.134 3.128-0.538 0-1.054-0.027-1.57-0.101 2.906 2.095 6.35 3.291 10.064 3.291 12.072 0 18.672-11.178 18.672-20.868 0-0.324-0.010-0.637-0.024-0.948 1.302-1.033 2.396-2.323 3.288-3.807z"></path>
</symbol>
<symbol id="icon-logo-hover" viewBox="0 0 72 32">
<path d="M26.886 0.015c-8.879 0-16.076 7.157-16.076 15.986s7.198 15.984 16.076 15.984c8.879 0 16.076-7.156 16.076-15.984s-7.198-15.986-16.076-15.986zM27.078 19.505c-2.021 0-3.658-1.623-3.658-3.624s1.637-3.625 3.658-3.625c2.020 0 3.658 1.623 3.658 3.625s-1.638 3.624-3.658 3.624z"></path>
<path fill="#3c322d" style="fill: var(--color2, #3c322d)" d="M42.865 15.997c0 0.261-0.008 0.522 0 0.783 0.090 2.652-0.746 5.042-2.089 7.296-0.45 0.756-0.88 1.525-1.268 2.314-0.32 0.649-0.765 1.104-1.456 1.37-0.387 0.148-0.745 0.405-1.068 0.669-1.49 1.218-3.181 2.091-4.989 2.705-1.201 0.408-2.438 0.767-3.743 0.751-0.389-0.005-0.779 0.114-1.168 0.115s-0.779-0.124-1.165-0.107c-1.682 0.071-3.241-0.441-4.789-0.979-1.689-0.587-3.18-1.514-4.583-2.618-1.98-1.558-3.391-3.52-4.428-5.765-0.559-1.21-1.014-2.46-1.142-3.803-0.021-0.223-0.096-0.444-0.162-0.66-0.47-1.507-0.2-2.985 0.091-4.486 0.223-1.148 0.452-2.283 0.886-3.373 1.146-2.884 2.967-5.245 5.488-7.1 2.102-1.545 4.454-2.494 7.012-2.902 2.935-0.468 5.8-0.131 8.581 0.963 1.387 0.548 2.696 1.241 3.839 2.16 1.066 0.856 2.028 1.858 2.937 2.882 0.823 0.928 1.408 2.034 1.93 3.162 0.816 1.762 1.347 3.586 1.293 5.546-0.012 0.361-0.004 0.72-0.004 1.079zM41.739 12.427c-0.081-0.616-0.132-1.329-0.284-2.021-0.433-1.992-1.598-3.547-3.152-4.818-0.881-0.722-1.843-1.349-2.79-1.988-0.321-0.216-0.694-0.415-1.068-0.481-0.963-0.176-1.937-0.34-2.914-0.389-1.695-0.086-3.217-0.518-4.496-1.685-0.942-0.858-1.967-0.941-2.946-0.186-1.109 0.855-2.372 1.357-3.659 1.855-0.943 0.364-1.851 0.823-2.758 1.276-0.758 0.379-1.199 0.971-1.189 1.867 0.006 0.503-0.227 0.923-0.697 1.201-0.392 0.234-0.769 0.492-1.128 0.773-1.003 0.781-1.785 1.662-1.953 3.028-0.133 1.080-0.464 2.148-1.211 3.038-0.25 0.306-0.405 0.677-0.446 1.069-0.069 0.807-0.041 1.625-0.020 2.437 0.005 0.218 0.101 0.451 0.213 0.642 0.258 0.452 0.539 0.891 0.842 1.315 0.734 1.010 1.373 2.046 1.52 3.329 0.143 1.243 0.75 2.256 1.776 3.030 1.487 1.121 2.921 2.31 4.43 3.402 0.811 0.587 1.68 1.102 2.75 1.221s2.119 0.407 3.078 0.941c0.201 0.107 0.422 0.174 0.649 0.197 1.353 0.144 2.607-0.187 3.795-0.814 0.373-0.197 0.757-0.375 1.142-0.545 0.929-0.411 1.959-0.682 2.768-1.255 0.9-0.639 1.862-0.922 2.896-1.101 0.447-0.078 0.811-0.26 1.102-0.588 0.346-0.39 0.668-0.802 1.029-1.178 0.374-0.389 0.644-0.803 0.709-1.356 0.1-0.849 0.467-1.599 0.933-2.32 0.789-1.217 1.237-2.562 1.47-3.992 0.062-0.375 0.096-0.693-0.091-1.022-0.543-0.953-0.321-2.035-0.493-3.049-0.087-0.548 0.113-1.148 0.197-1.831l-0.003-0zM35.206 2.909c-0.229-0.251-0.302-0.364-0.406-0.434-0.187-0.128-0.392-0.233-0.591-0.344-1.704-0.95-3.569-1.412-5.476-1.743-0.383-0.067-0.786-0.037-1.176-0.022-0.102 0.004-0.223 0.101-0.288 0.19-0.030 0.040 0.037 0.181 0.093 0.248 0.424 0.5 0.977 0.877 1.6 1.092 1.076 0.383 2.208 0.594 3.351 0.623 0.485 0.013 0.967 0.104 1.45 0.169 0.411 0.057 0.822 0.126 1.441 0.222zM20.733 30.284c-1.143-0.925-2.145-1.752-3.166-2.557-0.845-0.666-1.707-1.309-2.57-1.952-0.097-0.072-0.25-0.070-0.462-0.124 1.040 1.729 4.513 4.354 6.198 4.633zM13.029 8.699c0.689-0.522 1.328-1.070 2.028-1.524 0.982-0.633 1.358-1.421 1.126-2.773-0.697 0.564-1.194 1.243-1.731 1.861-0.568 0.651-0.989 1.426-1.462 2.155-0.037 0.059 0.023 0.175 0.040 0.281zM36.285 28.421c-0.643-0.044-1.291 0.069-1.695 0.412-0.766 0.652-1.677 0.98-2.603 1.306-0.486 0.171-0.945 0.422-1.404 0.661-0.063 0.033-0.075 0.209-0.062 0.314 0.005 0.035 0.176 0.092 0.247 0.068 0.832-0.281 1.692-0.507 2.48-0.883 0.966-0.459 1.874-1.040 2.799-1.579 0.096-0.053 0.148-0.18 0.238-0.299zM11.709 19.381c-0.185 0.54-0.149 0.838-0.032 1.157 0.323 0.883 0.518 1.814 1.099 2.585 0.215 0.286 0.26 0.925 0.657 0.787 0.35-0.12-0.059-0.626-0.084-0.968-0.092-1.304-0.784-2.355-1.641-3.561zM17.949 3.142l0.086 0.128c0.48-0.176 0.965-0.343 1.441-0.532 1.034-0.41 2.065-0.829 3.092-1.254 0.208-0.086 0.397-0.225 0.574-0.366 0.049-0.040 0.040-0.175 0.025-0.258-0.008-0.037-0.106-0.078-0.162-0.080-0.096 0.002-0.192 0.018-0.284 0.047-1.397 0.393-2.715 0.974-3.975 1.68-0.295 0.165-0.534 0.421-0.798 0.636zM42.482 17.147c0.084-0.097 0.15-0.138 0.154-0.183 0.137-1.421-0.016-2.829-0.213-4.233-0.010-0.070-0.108-0.172-0.176-0.18-0.074-0.010-0.19 0.051-0.235 0.117-0.074 0.104-0.12 0.225-0.134 0.352-0.074 1.158 0.003 2.321 0.23 3.46 0.045 0.23 0.237 0.432 0.373 0.668zM11.372 13.226c0.545-0.206 0.627-0.578 0.685-0.914 0.143-0.82 0.498-1.61 0.381-2.477-0.57 1.034-1.076 2.083-1.066 3.391v0zM24.566 31.234c-1.222-0.535-1.553-0.591-2.641-0.441 0.461 0.173 0.876 0.448 1.294 0.452 0.435 0.007 0.906 0.534 1.348-0.011v0z"></path>
<path fill="#3c322d" style="fill: var(--color2, #3c322d)" d="M27.086 20.593c-0.836-0.015-1.409-0.361-1.834-1.030-0.396-0.623-1.055-0.947-1.658-1.331-0.761-0.485-1.379-1.031-1.555-2.012-0.122-0.666 0.020-1.243 0.293-1.769 0.229-0.439 0.638-0.848 1.067-1.109 0.466-0.283 0.852-0.55 1.067-1.073 0.243-0.602 0.857-0.638 1.4-0.746 0.512-0.102 1.031-0.167 1.536-0.295 0.689-0.174 1.315-0.12 1.819 0.411 0.39 0.412 0.844 0.708 1.351 0.958 0.528 0.26 0.701 0.564 0.536 1.107-0.112 0.368-0.004 0.619 0.135 0.914 0.152 0.321 0.308 0.647 0.412 0.986 0.347 1.128-0.053 2.077-1.121 2.58-0.663 0.311-1.17 0.726-1.335 1.456-0.066 0.294-0.251 0.461-0.514 0.538-0.528 0.153-1.065 0.279-1.598 0.416zM30.593 15.864c0.017-1.987-1.505-3.576-3.484-3.579-1.776 0-3.562 1.19-3.631 3.468-0.056 1.824 1.479 3.524 3.481 3.53 2.438 0.012 3.587-1.663 3.634-3.42zM23.458 17.764c0-0.255 0.025-0.385-0.004-0.503-0.262-1.079-0.433-2.149 0.162-3.189 0.043-0.075-0.056-0.229-0.089-0.346-0.117 0.037-0.258 0.045-0.346 0.117-0.983 0.8-1.422 2.718 0.277 3.92zM27.111 11.787c0.412 0.149 0.647 0.255 0.892 0.321 0.907 0.238 1.68 0.664 2.218 1.451 0.106 0.155 0.243 0.385 0.446 0.209 0.108-0.095 0.143-0.382 0.081-0.526-0.084-0.191-0.275-0.43-0.458-0.468-0.498-0.103-0.771-0.46-1.095-0.772-0.546-0.519-1.156-0.682-2.085-0.216zM27.056 19.61l-0.012-0.075c-0.261 0-0.525-0.022-0.782 0.010-0.133 0.016-0.252 0.127-0.378 0.195 0.114 0.1 0.213 0.257 0.345 0.29 0.703 0.175 1.411 0.213 2.104-0.055 0.118-0.047 0.25-0.106 0.325-0.201 0.066-0.080 0.087-0.222 0.074-0.331-0.005-0.040-0.169-0.101-0.25-0.087-0.476 0.074-0.95 0.167-1.422 0.254l-0.003 0zM30.648 17.572c0.486-0.090 0.704-0.361 0.732-0.779 0.021-0.352 0.016-0.705-0.016-1.056-0.008-0.093-0.138-0.175-0.213-0.263-0.108 0.101-0.328 0.238-0.308 0.299 0.198 0.609-0.215 1.155-0.196 1.798v0.001z"></path>
<path fill="#3c322d" style="fill: var(--color2, #3c322d)" d="M35.101 20.322c-0.028 0.014-0.141 0.108-0.263 0.121-0.111 0.013-0.273-0.024-0.342-0.101-0.346-0.387-0.682-0.784-0.991-1.199-0.081-0.108-0.114-0.401-0.068-0.427 0.152-0.083 0.449-0.17 0.515-0.098 0.391 0.428 0.736 0.897 1.089 1.358 0.035 0.046 0.024 0.126 0.060 0.346z"></path>
<path fill="#3c322d" style="fill: var(--color2, #3c322d)" d="M18.53 23.669c0.181 0.014 0.538 0.025 0.887 0.084 0.086 0.015 0.203 0.183 0.203 0.283s-0.1 0.274-0.187 0.295c-0.677 0.166-1.351 0.208-1.951-0.24-0.034-0.031-0.060-0.070-0.076-0.112s-0.023-0.089-0.019-0.134c0.013-0.067 0.118-0.16 0.189-0.165 0.26-0.022 0.521-0.010 0.955-0.010z"></path>
<path fill="#3c322d" style="fill: var(--color2, #3c322d)" d="M39.757 9.562l0.256 0.139c-0.073 0.129-0.117 0.336-0.223 0.373-0.488 0.177-0.988 0.319-1.497 0.423-0.146 0.028-0.359-0.114-0.494-0.231-0.156-0.136-0.064-0.431 0.133-0.461 0.576-0.088 1.158-0.155 1.824-0.242z"></path>
<path fill="#3c322d" style="fill: var(--color2, #3c322d)" d="M22.515 26.541c0.271 0.125 0.497 0.16 0.608 0.294 0.304 0.372 0.581 0.764 0.83 1.173 0.122 0.195 0.011 0.406-0.194 0.463-0.112 0.031-0.316-0.060-0.399-0.161-0.331-0.394-0.637-0.807-0.918-1.238-0.065-0.102 0.036-0.308 0.072-0.532z"></path>
<path fill="#3c322d" style="fill: var(--color2, #3c322d)" d="M33.146 11.018c0.017-0.114 0-0.244 0.054-0.294 0.073-0.066 0.23-0.12 0.305-0.085 0.103 0.048 0.169 0.181 0.24 0.286 0.196 0.291 0.39 0.584 0.577 0.883 0.084 0.133 0.196 0.276 0.203 0.42 0.008 0.133-0.074 0.306-0.175 0.398-0.057 0.051-0.289 0.018-0.346-0.053-0.375-0.471-0.824-0.912-0.858-1.554z"></path>
<path fill="#3c322d" style="fill: var(--color2, #3c322d)" d="M34.312 6.010c-0.081 0.481-0.114 0.836-0.208 1.175-0.059 0.183-0.172 0.345-0.325 0.465-0.107 0.086-0.295 0.074-0.446 0.105-0.012-0.14-0.057-0.286-0.031-0.419 0.079-0.41 0.185-0.815 0.28-1.222 0.007-0.032 0.005-0.065 0.015-0.096 0.075-0.245 0.236-0.432 0.495-0.331 0.13 0.051 0.191 0.276 0.22 0.323z"></path>
<path fill="#3c322d" style="fill: var(--color2, #3c322d)" d="M27.318 9.141c0.228 0.028 0.523 0.043 0.804 0.111 0.096 0.023 0.238 0.194 0.221 0.268-0.029 0.132-0.14 0.306-0.257 0.345-0.186 0.057-0.385 0.058-0.571 0.003-0.325-0.102-0.627-0.136-0.95-0.002-0.213 0.088-0.412-0.005-0.469-0.214-0.076-0.281 0.138-0.417 0.377-0.457 0.256-0.042 0.52-0.035 0.846-0.053z"></path>
<path fill="#3c322d" style="fill: var(--color2, #3c322d)" d="M32.378 22.97c-0.092 0.398-0.162 0.748-0.261 1.089-0.019 0.067-0.162 0.158-0.222 0.142-0.108-0.026-0.26-0.11-0.282-0.198-0.048-0.189-0.054-0.386-0.016-0.578 0.076-0.35 0.151-0.682 0.008-1.039-0.068-0.171-0.048-0.444 0.214-0.443 0.142 0 0.345 0.173 0.409 0.316 0.103 0.229 0.11 0.498 0.15 0.71z"></path>
<path fill="#3c322d" style="fill: var(--color2, #3c322d)" d="M28.386 22.868c-0.053 0.093-0.078 0.203-0.148 0.251-0.427 0.291-0.855 0.584-1.305 0.838-0.115 0.065-0.316 0.025-0.463-0.018-0.214-0.063-0.259-0.342-0.081-0.455 0.492-0.312 0.986-0.621 1.493-0.908 0.081-0.047 0.244 0.004 0.348 0.055 0.071 0.035 0.102 0.149 0.155 0.237z"></path>
<path fill="#3c322d" style="fill: var(--color2, #3c322d)" d="M22.944 4.155c0.070 0.040 0.2 0.075 0.218 0.139 0.17 0.618 0.333 1.238 0.468 1.864 0.038 0.174-0.195 0.27-0.351 0.166-0.491-0.326-0.796-1.536-0.51-2.042 0.030-0.051 0.102-0.076 0.176-0.128z"></path>
<path fill="#3c322d" style="fill: var(--color2, #3c322d)" d="M29.004 5.911c-0.148-0.097-0.307-0.147-0.329-0.231-0.023-0.091 0.053-0.248 0.136-0.321 0.36-0.318 0.736-0.618 1.127-0.897 0.132-0.092 0.405-0.157 0.507-0.085 0.239 0.166 0.113 0.401-0.053 0.573-0.224 0.231-0.446 0.475-0.704 0.662-0.197 0.14-0.451 0.201-0.684 0.299z"></path>
<path fill="#3c322d" style="fill: var(--color2, #3c322d)" d="M19.68 9.177l-0.358 0.336c-0.102-0.11-0.254-0.201-0.297-0.331-0.172-0.512-0.316-1.033-0.453-1.555-0.019-0.072 0.040-0.218 0.102-0.244 0.099-0.040 0.263-0.056 0.338 0 0.149 0.109 0.319 0.255 0.368 0.418 0.127 0.425 0.194 0.869 0.3 1.377z"></path>
<path fill="#3c322d" style="fill: var(--color2, #3c322d)" d="M15.755 17.757c-0.329 0.597-0.579 1.207-1.191 1.533-0.103 0.054-0.331-0.016-0.441-0.102-0.187-0.147 0-0.27 0.091-0.395 0.288-0.391 0.553-0.8 0.858-1.176 0.079-0.096 0.278-0.144 0.415-0.131 0.092 0.008 0.168 0.163 0.268 0.272z"></path>
<path fill="#3c322d" style="fill: var(--color2, #3c322d)" d="M19.47 17.808c0.171 0.098 0.296 0.127 0.319 0.192 0.038 0.106 0.058 0.272 0 0.346-0.094 0.117-0.255 0.184-0.394 0.263-0.36 0.204-0.715 0.42-1.088 0.594-0.114 0.053-0.32 0.037-0.422-0.034-0.209-0.147-0.135-0.383 0.032-0.487 0.514-0.319 1.054-0.597 1.553-0.874z"></path>
<path fill="#3c322d" style="fill: var(--color2, #3c322d)" d="M38.067 15.106c-0.133 0.295-0.318 0.74-0.538 1.168-0.034 0.066-0.248 0.102-0.338 0.063-0.084-0.037-0.176-0.205-0.159-0.295 0.089-0.475 0.186-0.952 0.335-1.411 0.046-0.14 0.251-0.267 0.408-0.314 0.059-0.017 0.212 0.201 0.284 0.334 0.042 0.075 0.008 0.19 0.008 0.457z"></path>
<path fill="#3c322d" style="fill: var(--color2, #3c322d)" d="M15.651 11.562c0.582 0.517 0.513 1.218 0.577 1.866 0.012 0.12-0.139 0.293-0.26 0.379-0.063 0.046-0.32-0.028-0.326-0.070-0.092-0.654-0.162-1.312-0.219-1.971-0.004-0.056 0.133-0.125 0.228-0.205z"></path>
<path fill="#3c322d" style="fill: var(--color2, #3c322d)" d="M29.253 27.56c0.097 0.026 0.193 0.057 0.288 0.093 0.35 0.16 0.701 0.316 1.042 0.493 0.162 0.083 0.325 0.187 0.441 0.32 0.134 0.154-0.019 0.451-0.207 0.41-0.634-0.136-1.254-0.325-1.729-0.794-0.070-0.069-0.069-0.243-0.046-0.358 0.014-0.065 0.136-0.11 0.21-0.165z"></path>
<path fill="#3c322d" style="fill: var(--color2, #3c322d)" d="M21.533 11.751c0.033 0.104 0.149 0.265 0.108 0.366-0.213 0.535-0.459 1.059-0.711 1.578-0.031 0.064-0.162 0.12-0.24 0.11-0.068-0.008-0.162-0.103-0.18-0.175-0.133-0.579 0.286-1.615 0.754-1.876 0.048-0.027 0.126-0.004 0.269-0.004z"></path>
<path fill="#3c322d" style="fill: var(--color2, #3c322d)" d="M39.672 20.539c-0.073-0.046-0.225-0.102-0.304-0.209-0.032-0.043 0.070-0.239 0.159-0.301 0.39-0.281 0.789-0.549 1.204-0.79 0.112-0.064 0.345-0.069 0.427 0.004 0.076 0.067 0.087 0.32 0.019 0.414-0.348 0.48-0.787 0.846-1.504 0.883z"></path>
<path fill="#3c322d" style="fill: var(--color2, #3c322d)" d="M37.262 24.67c-0.301-0.031-0.432-0.034-0.557-0.062-0.053-0.011-0.132-0.074-0.133-0.114-0.005-0.091 0.018-0.181 0.069-0.258 0.064-0.073 0.149-0.124 0.243-0.15 0.464-0.138 0.928-0.276 1.4-0.389 0.102-0.024 0.317 0.043 0.331 0.101 0.031 0.137-0.006 0.303-0.060 0.442-0.029 0.073-0.144 0.134-0.232 0.16-0.403 0.109-0.808 0.207-1.060 0.272z"></path>
<path fill="#3c322d" style="fill: var(--color2, #3c322d)" d="M23.29 21.355c-0.033 0.14-0.087 0.45-0.191 0.743-0.026 0.072-0.229 0.142-0.322 0.116s-0.203-0.179-0.2-0.274c0.010-0.541 0.037-1.083 0.092-1.622 0.012-0.118 0.162-0.221 0.249-0.331 0.104 0.109 0.272 0.205 0.299 0.33 0.059 0.28 0.047 0.573 0.074 1.039z"></path>
<path fill="#3c322d" style="fill: var(--color2, #3c322d)" d="M45.035 4.422c0-1.146 0.28-2.016 0.84-2.608 0.567-0.598 1.294-0.897 2.179-0.897s1.59 0.258 2.111 0.775c0.529 0.517 0.794 1.342 0.794 2.475s-0.28 1.99-0.841 2.57-1.309 0.869-2.245 0.869c-0.809 0-1.472-0.23-1.988-0.689-0.267-0.24-0.478-0.57-0.63-0.992-0.146-0.429-0.219-0.929-0.219-1.503zM48.025 1.012c-0.644 0-1.172 0.283-1.586 0.85-0.408 0.567-0.611 1.398-0.611 2.494s0.194 1.896 0.583 2.4c0.388 0.504 0.904 0.756 1.547 0.756 0.65 0 1.178-0.283 1.586-0.85 0.414-0.573 0.62-1.402 0.62-2.485 0-1.090-0.197-1.89-0.592-2.4-0.388-0.51-0.904-0.765-1.547-0.765z"></path>
<path fill="#3c322d" style="fill: var(--color2, #3c322d)" d="M52.61 7.568h-0.793v-6.614h0.793v3.042h3.105v-3.042h0.793v6.614h-0.793v-3.477h-3.105v3.477z"></path>
<path fill="#3c322d" style="fill: var(--color2, #3c322d)" d="M60.584 7.568h-0.124l0.831-6.614h0.316l2.005 6.113 1.997-6.113h0.315l0.831 6.614h-0.793l-0.659-5.291-1.728 5.291h-0.602l-1.748-5.225-0.641 5.225z"></path>
<path fill="#3c322d" style="fill: var(--color2, #3c322d)" d="M72.048 0.955c0.121 0.12 0.181 0.274 0.181 0.463 0 0.158-0.035 0.318-0.105 0.482l-1.71 3.429v2.239h-0.793v-2.031l-1.911-4.582h0.812l1.824 4.261 1.663-3.316c0.070-0.157 0.105-0.321 0.105-0.491s-0.048-0.302-0.143-0.397l0.077-0.057z"></path>
<path fill="#3c322d" style="fill: var(--color2, #3c322d)" d="M1.347 9.306c0.494-0.022 0.976-0.033 1.448-0.033 0.483 0 0.987 0.050 1.515 0.15 0.539 0.1 1.066 0.288 1.583 0.566 0.528 0.267 0.971 0.616 1.33 1.049 0.37 0.422 0.668 0.982 0.892 1.681s0.337 1.548 0.337 2.547c0 0.999-0.168 1.898-0.505 2.697-0.325 0.788-0.774 1.393-1.347 1.815-1.111 0.822-2.453 1.232-4.024 1.232-0.55 0-1.128-0.022-1.734-0.067h-0.842v-11.637h1.347zM1.397 20.811c0.236 0.022 0.533 0.033 0.892 0.033s0.629-0.006 0.808-0.016c0.18-0.011 0.426-0.056 0.741-0.134 0.314-0.089 0.606-0.205 0.875-0.35s0.55-0.355 0.842-0.633c0.303-0.288 0.561-0.627 0.774-1.015 0.483-0.91 0.724-2.098 0.724-3.563 0-1.043-0.129-1.942-0.387-2.697-0.258-0.766-0.555-1.332-0.892-1.698-0.325-0.366-0.724-0.655-1.195-0.866-0.471-0.222-0.848-0.35-1.128-0.383s-0.606-0.050-0.976-0.050c-0.371 0-0.73 0.016-1.077 0.050v11.322z"></path>
<path fill="#3c322d" style="fill: var(--color2, #3c322d)" d="M45.308 20.944h-0.219v-11.654h0.572l7.003 10.772v-10.772h0.219v11.654h-1.229l-6.346-9.657v9.656z"></path>
<path fill="#3c322d" style="fill: var(--color2, #3c322d)" d="M63.25 9.29h0.219v6.66c0 1.743-0.348 3.025-1.044 3.846-0.695 0.81-1.605 1.216-2.727 1.216-0.707 0-1.307-0.061-1.801-0.183-0.494-0.134-0.96-0.372-1.398-0.716-0.898-0.688-1.346-2.076-1.346-4.162v-6.66h1.398v6.643c0 2.020 0.309 3.369 0.926 4.046 0.314 0.333 0.639 0.56 0.976 0.682 0.348 0.122 0.763 0.183 1.246 0.183 1.077 0 1.936-0.389 2.576-1.165 0.651-0.788 0.977-2.037 0.977-3.746v-6.643z"></path>
<path fill="#3c322d" style="fill: var(--color2, #3c322d)" d="M69.211 20.944h-1.397v-11.488h-2.912v-0.166h7.239v0.166h-2.929v11.488z"></path>
<path d="M48.554 24.294c0 0.046-0.021 0.095-0.063 0.145-0.028 0.034-0.067 0.072-0.116 0.112s-0.11 0.086-0.183 0.135-0.15 0.1-0.232 0.152-0.17 0.106-0.263 0.161-0.186 0.109-0.277 0.163-0.183 0.106-0.277 0.159-0.171 0.097-0.233 0.134c-0.062 0.037-0.11 0.066-0.144 0.087-0.032 0.021-0.067 0.049-0.104 0.086s-0.079 0.080-0.128 0.128c-0.121 0.121-0.255 0.235-0.402 0.344-0.079 0.058-0.169 0.087-0.27 0.087-0.055 0-0.106-0.011-0.152-0.033-0.048-0.022-0.071-0.057-0.071-0.105 0-0.030 0.012-0.057 0.036-0.080 0.045-0.045 0.086-0.083 0.124-0.114s0.077-0.061 0.117-0.089 0.084-0.057 0.132-0.087 0.104-0.066 0.167-0.109c0.077-0.052 0.137-0.092 0.179-0.12s0.066-0.043 0.071-0.048c0.090-0.067 0.171-0.134 0.242-0.202s0.132-0.136 0.184-0.206c0.106-0.142 0.159-0.301 0.159-0.48 0-0.031-0.006-0.073-0.019-0.125s-0.031-0.103-0.055-0.153c-0.024-0.049-0.052-0.093-0.086-0.129s-0.071-0.054-0.112-0.054c-0.045 0-0.088 0.009-0.132 0.026s-0.086 0.040-0.129 0.068-0.086 0.061-0.126 0.097c-0.041 0.036-0.081 0.073-0.122 0.11-0.079 0.076-0.155 0.16-0.229 0.252s-0.152 0.197-0.234 0.313c-0.040 0.058-0.075 0.117-0.105 0.179s-0.054 0.12-0.075 0.178c-0.020 0.057-0.035 0.111-0.046 0.162s-0.016 0.094-0.018 0.129l-0.009 0.183c-0.003 0.043-0.021 0.077-0.053 0.102s-0.071 0.037-0.117 0.037c-0.067 0-0.115-0.026-0.144-0.077s-0.044-0.13-0.044-0.236c0-0.015 0.001-0.040 0.002-0.076s0.003-0.077 0.005-0.123 0.003-0.095 0.006-0.145c0.002-0.050 0.004-0.098 0.005-0.143s0.003-0.084 0.005-0.117c0.001-0.034 0.003-0.056 0.005-0.068 0.005-0.094 0.010-0.184 0.017-0.27s0.014-0.174 0.022-0.263c0.008-0.089 0.018-0.181 0.029-0.277s0.024-0.198 0.037-0.308 0.026-0.215 0.039-0.314c0.013-0.1 0.026-0.196 0.039-0.288s0.029-0.183 0.046-0.272c0.017-0.089 0.038-0.179 0.062-0.268 0.003-0.010 0.009-0.030 0.018-0.060s0.020-0.059 0.033-0.089 0.028-0.057 0.043-0.080c0.016-0.024 0.032-0.036 0.050-0.036 0.012 0 0.026-0 0.040-0.001s0.031 0 0.048 0.001c0.017 0.001 0.034 0.006 0.050 0.011s0.031 0.016 0.045 0.031 0.024 0.032 0.032 0.050c0.008 0.019 0.013 0.038 0.016 0.056s0.005 0.036 0.006 0.053c0 0.017 0.001 0.031 0.001 0.043 0 0.021-0.008 0.060-0.022 0.117s-0.032 0.134-0.053 0.229c-0.037 0.166-0.073 0.338-0.108 0.513s-0.063 0.35-0.084 0.523c-0.008 0.058-0.015 0.122-0.022 0.191s-0.014 0.14-0.022 0.214c-0.006 0.073-0.012 0.148-0.018 0.224s-0.009 0.149-0.010 0.219c0.046-0.071 0.094-0.152 0.143-0.242s0.109-0.178 0.181-0.262 0.142-0.161 0.212-0.228 0.146-0.13 0.228-0.19c0.164-0.119 0.315-0.179 0.455-0.179 0.085-0.003 0.164 0.016 0.239 0.058s0.14 0.097 0.195 0.165c0.056 0.068 0.099 0.144 0.129 0.229s0.045 0.167 0.044 0.249c0 0.053-0.022 0.149-0.065 0.288-0.021 0.068-0.042 0.121-0.063 0.157s-0.039 0.069-0.056 0.097c0.055-0.036 0.115-0.075 0.181-0.116s0.132-0.084 0.199-0.126c0.067-0.043 0.133-0.084 0.197-0.124s0.124-0.077 0.178-0.109c0.009-0.006 0.027-0.017 0.053-0.034s0.064-0.041 0.109-0.070 0.089-0.058 0.129-0.085 0.077-0.050 0.112-0.071c0.068-0.045 0.108-0.067 0.121-0.067 0.027 0 0.046 0.011 0.057 0.033 0.010 0.020 0.015 0.043 0.015 0.069z"></path>
<path d="M50.429 23.923c0 0.026-0.001 0.055-0.002 0.088s-0.004 0.072-0.007 0.115c-0.003 0.042-0.006 0.085-0.010 0.129s-0.008 0.090-0.012 0.139-0.008 0.090-0.011 0.126c-0.003 0.037-0.005 0.067-0.007 0.093-0.010 0.204-0.032 0.413-0.065 0.629s-0.074 0.42-0.123 0.615c-0.079 0.323-0.193 0.599-0.344 0.828-0.152 0.232-0.362 0.348-0.63 0.348-0.176 0-0.352-0.035-0.531-0.105-0.177-0.068-0.327-0.164-0.448-0.288-0.073-0.086-0.109-0.146-0.109-0.179 0-0.037 0.011-0.080 0.033-0.127 0.024-0.046 0.050-0.069 0.080-0.069 0.016 0 0.030 0.009 0.042 0.027 0.050 0.071 0.099 0.128 0.145 0.17 0.198 0.176 0.455 0.263 0.772 0.263 0.125 0 0.234-0.059 0.328-0.179 0.048-0.058 0.090-0.121 0.126-0.187s0.069-0.137 0.097-0.21 0.053-0.147 0.076-0.223 0.042-0.153 0.060-0.232c0.015-0.073 0.026-0.131 0.035-0.174s0.013-0.072 0.014-0.087c0.008-0.063 0.012-0.123 0.016-0.181s0.009-0.115 0.018-0.172c-0.042 0.019-0.127 0.068-0.257 0.147-0.076 0.046-0.145 0.088-0.208 0.125s-0.118 0.070-0.167 0.098c-0.098 0.058-0.209 0.113-0.333 0.165s-0.228 0.078-0.308 0.078c-0.14 0-0.248-0.056-0.324-0.167s-0.114-0.24-0.114-0.386c0-0.104 0.011-0.22 0.033-0.348 0.012-0.064 0.024-0.124 0.037-0.18s0.027-0.108 0.042-0.158 0.032-0.108 0.052-0.176c0.021-0.068 0.045-0.147 0.073-0.237 0.015-0.049 0.031-0.092 0.049-0.128s0.038-0.067 0.061-0.091c0.023-0.025 0.050-0.043 0.082-0.055s0.069-0.018 0.114-0.018c0.043 0 0.077 0.025 0.103 0.074 0.024 0.046 0.036 0.094 0.036 0.143 0 0.030-0.007 0.057-0.020 0.080-0.008 0.012-0.018 0.029-0.031 0.051s-0.030 0.050-0.051 0.083-0.037 0.060-0.049 0.081-0.019 0.038-0.022 0.050c-0.012 0.036-0.022 0.067-0.031 0.094s-0.017 0.049-0.025 0.067c-0.006 0.018-0.012 0.039-0.020 0.064s-0.016 0.053-0.027 0.086c-0.019 0.064-0.033 0.122-0.041 0.175s-0.012 0.109-0.012 0.169 0.012 0.132 0.036 0.217c0.026 0.088 0.059 0.132 0.103 0.132 0.131 0 0.289-0.038 0.475-0.114 0.186-0.077 0.354-0.178 0.505-0.301s0.241-0.248 0.272-0.373c0.006-0.018 0.010-0.045 0.013-0.080s0.006-0.075 0.008-0.119c0.003-0.044 0.005-0.090 0.006-0.138s0.003-0.093 0.006-0.138c0.002-0.044 0.005-0.083 0.008-0.118s0.008-0.062 0.013-0.080c0.039-0.137 0.102-0.205 0.187-0.205 0.082 0 0.133 0.021 0.152 0.063 0.021 0.045 0.031 0.115 0.031 0.212z"></path>
<path d="M56.433 24.376c0 0.037-0.009 0.074-0.027 0.109-0.032 0.066-0.108 0.166-0.225 0.301-0.057 0.067-0.117 0.133-0.181 0.198s-0.132 0.131-0.203 0.198-0.141 0.127-0.208 0.181-0.133 0.102-0.197 0.145c-0.126 0.086-0.228 0.129-0.304 0.129-0.030 0-0.068-0.010-0.114-0.031-0.094-0.043-0.168-0.122-0.223-0.237-0.053-0.115-0.091-0.235-0.114-0.359s-0.041-0.265-0.056-0.42c-0.186 0.347-0.427 0.655-0.723 0.924-0.298 0.271-0.606 0.406-0.924 0.406-0.088 0-0.155-0.047-0.201-0.141-0.046-0.092-0.069-0.188-0.069-0.288 0-0.134 0.011-0.234 0.033-0.299 0.063-0.191 0.134-0.369 0.215-0.536s0.18-0.331 0.296-0.491c0.076-0.104 0.162-0.208 0.259-0.313 0.098-0.104 0.191-0.179 0.277-0.223 0.107-0.058 0.261-0.087 0.462-0.087 0.070 0 0.129 0.039 0.179 0.116s0.086 0.167 0.112 0.27c0.026 0.108 0.038 0.193 0.038 0.255 0.022-0.073 0.042-0.147 0.060-0.222s0.033-0.153 0.047-0.233 0.026-0.165 0.037-0.254c0.011-0.088 0.021-0.183 0.030-0.284 0.003-0.027 0.006-0.061 0.009-0.103s0.007-0.090 0.011-0.147c0.009-0.116 0.018-0.214 0.027-0.294s0.021-0.132 0.036-0.155c0.036-0.061 0.098-0.091 0.187-0.091 0.045 0 0.088 0.010 0.132 0.029 0.046 0.018 0.069 0.043 0.069 0.076 0 0.018-0.004 0.047-0.010 0.087-0.007 0.040-0.016 0.092-0.028 0.156s-0.028 0.143-0.048 0.238c-0.021 0.094-0.042 0.207-0.066 0.338-0.001 0.015-0.006 0.045-0.013 0.089s-0.016 0.092-0.025 0.142c-0.009 0.050-0.017 0.096-0.025 0.139s-0.012 0.069-0.013 0.080c-0.019 0.121-0.035 0.234-0.047 0.339s-0.018 0.213-0.018 0.321c0 0.086 0.002 0.188 0.007 0.306 0.005 0.119 0.016 0.235 0.033 0.346s0.044 0.167 0.078 0.167c0.122 0 0.269-0.056 0.442-0.167 0.171-0.113 0.336-0.242 0.496-0.389s0.3-0.285 0.424-0.417c0.009-0.009 0.017-0.013 0.025-0.013 0.016 0 0.027 0.012 0.032 0.037s0.007 0.049 0.007 0.072zM54.352 24.517c-0.039-0.009-0.068-0.028-0.088-0.058s-0.030-0.064-0.030-0.101c0-0.030 0.005-0.074 0.013-0.132s0.013-0.103 0.013-0.134c0-0.027-0.007-0.057-0.022-0.090s-0.032-0.064-0.054-0.094c-0.022-0.029-0.048-0.053-0.075-0.073s-0.054-0.030-0.081-0.030c-0.079 0-0.186 0.083-0.321 0.248-0.068 0.085-0.131 0.166-0.188 0.243s-0.11 0.154-0.158 0.23c-0.052 0.082-0.096 0.157-0.133 0.225s-0.067 0.129-0.093 0.183c-0.088 0.189-0.132 0.338-0.132 0.447 0 0.139 0.047 0.208 0.141 0.208 0.084 0 0.198-0.048 0.344-0.145 0.15-0.103 0.267-0.195 0.348-0.277 0.085-0.089 0.155-0.164 0.212-0.225s0.102-0.11 0.134-0.147 0.063-0.079 0.090-0.125c0.027-0.047 0.053-0.098 0.079-0.153z"></path>
<path d="M59.254 24.046c0 0.026-0.006 0.051-0.016 0.077s-0.026 0.052-0.044 0.076c-0.018 0.025-0.038 0.048-0.059 0.070s-0.044 0.039-0.066 0.052c-0.052 0.034-0.126 0.064-0.222 0.090s-0.214 0.039-0.356 0.039c-0.113 0-0.227-0.015-0.342-0.043s-0.224-0.077-0.331-0.144c0.034 0.052 0.056 0.102 0.066 0.149s0.014 0.104 0.014 0.17c0 0.117-0.030 0.242-0.089 0.375-0.058 0.134-0.133 0.258-0.225 0.373s-0.19 0.21-0.293 0.286c-0.058 0.043-0.122 0.081-0.191 0.113s-0.142 0.058-0.218 0.078c-0.076 0.021-0.155 0.035-0.237 0.045s-0.164 0.015-0.248 0.015c-0.058 0-0.115-0.019-0.17-0.056s-0.104-0.083-0.147-0.136-0.078-0.111-0.104-0.172c-0.026-0.061-0.039-0.116-0.039-0.165 0-0.121 0.016-0.236 0.048-0.347s0.075-0.218 0.129-0.321c0.054-0.103 0.117-0.204 0.188-0.304s0.147-0.198 0.228-0.295c0.045-0.055 0.096-0.109 0.153-0.162s0.117-0.101 0.18-0.142 0.126-0.075 0.19-0.102c0.064-0.026 0.125-0.039 0.183-0.039 0.048 0 0.088 0.007 0.123 0.020s0.067 0.032 0.097 0.057c0.031 0.024 0.062 0.055 0.094 0.092s0.069 0.079 0.111 0.125c0.013 0.013 0.050 0.033 0.111 0.059s0.131 0.051 0.214 0.076c0.082 0.024 0.169 0.046 0.26 0.064s0.173 0.028 0.248 0.028 0.143-0.003 0.205-0.008c0.063-0.006 0.123-0.014 0.181-0.026s0.117-0.028 0.176-0.049 0.121-0.046 0.187-0.076c0.007 0.023 0.010 0.042 0.010 0.059zM57.587 24.581c0.001-0.042-0.001-0.089-0.009-0.142s-0.021-0.103-0.039-0.149c-0.018-0.048-0.043-0.085-0.073-0.115s-0.068-0.042-0.113-0.036c-0.068-0.027-0.125-0.055-0.17-0.085s-0.079-0.045-0.103-0.045c-0.018 0-0.037 0.006-0.058 0.017s-0.042 0.026-0.065 0.046-0.045 0.042-0.068 0.068c-0.023 0.026-0.046 0.053-0.068 0.082-0.045 0.058-0.086 0.111-0.124 0.159s-0.074 0.095-0.107 0.142c-0.034 0.047-0.066 0.096-0.097 0.147s-0.063 0.109-0.094 0.173c-0.013 0.027-0.026 0.059-0.036 0.096s-0.019 0.075-0.027 0.115c-0.008 0.039-0.013 0.079-0.017 0.118s-0.005 0.075-0.005 0.106c0 0.019 0.007 0.043 0.020 0.070s0.031 0.054 0.052 0.080c0.022 0.026 0.047 0.048 0.074 0.066s0.054 0.027 0.081 0.027c0.076 0 0.141-0.003 0.194-0.010s0.103-0.018 0.149-0.036c0.045-0.017 0.091-0.040 0.137-0.070s0.1-0.068 0.161-0.116c0.030-0.022 0.059-0.048 0.088-0.078s0.058-0.062 0.086-0.095c0.028-0.034 0.055-0.068 0.080-0.103s0.049-0.070 0.071-0.104c0.015-0.022 0.028-0.050 0.038-0.083s0.019-0.066 0.025-0.098 0.010-0.063 0.012-0.089c0.003-0.026 0.004-0.046 0.004-0.058z"></path>
<path d="M62.618 24.32c0 0.028-0.005 0.057-0.014 0.086s-0.022 0.058-0.036 0.086c-0.014 0.029-0.030 0.058-0.048 0.085s-0.035 0.054-0.051 0.080c-0.043 0.067-0.094 0.135-0.152 0.204s-0.12 0.136-0.186 0.202c-0.067 0.066-0.134 0.127-0.204 0.185s-0.139 0.109-0.205 0.154c-0.053 0.036-0.105 0.069-0.153 0.101s-0.097 0.058-0.146 0.080-0.101 0.040-0.154 0.053-0.112 0.020-0.176 0.020c-0.124 0-0.224-0.031-0.301-0.094-0.039-0.031-0.073-0.072-0.102-0.122s-0.054-0.105-0.076-0.166c-0.022-0.061-0.040-0.126-0.056-0.194s-0.029-0.136-0.039-0.203c-0.013-0.084-0.026-0.158-0.038-0.224s-0.026-0.122-0.041-0.167c-0.016-0.046-0.035-0.080-0.057-0.105s-0.051-0.037-0.087-0.037c-0.028 0-0.055 0.003-0.080 0.009s-0.052 0.018-0.079 0.036c-0.028 0.018-0.058 0.043-0.090 0.076s-0.071 0.076-0.115 0.129c-0.044 0.053-0.094 0.119-0.151 0.197s-0.123 0.17-0.199 0.277c-0.037 0.052-0.081 0.109-0.132 0.172s-0.102 0.122-0.155 0.179c-0.053 0.057-0.105 0.106-0.155 0.149s-0.095 0.070-0.134 0.083c-0.131-0.028-0.197-0.191-0.197-0.489 0-0.079 0.009-0.199 0.027-0.359 0.009-0.073 0.019-0.149 0.031-0.229s0.027-0.159 0.045-0.238c0.018-0.080 0.038-0.157 0.061-0.232s0.050-0.145 0.082-0.209c0.015-0.030 0.030-0.053 0.047-0.070s0.033-0.029 0.050-0.038c0.017-0.009 0.035-0.013 0.053-0.016s0.038-0.003 0.057-0.003c0.024 0 0.045 0.016 0.064 0.049s0.028 0.078 0.028 0.136c0 0.036-0.003 0.069-0.009 0.101s-0.014 0.064-0.025 0.096-0.022 0.068-0.033 0.106c-0.012 0.038-0.024 0.081-0.036 0.13-0.009 0.040-0.019 0.085-0.030 0.134s-0.022 0.099-0.031 0.149c-0.010 0.050-0.018 0.1-0.025 0.149s-0.010 0.091-0.010 0.13c0 0.027 0.005 0.054 0.013 0.083 0.042-0.005 0.11-0.067 0.205-0.187 0.049-0.061 0.103-0.128 0.162-0.201s0.123-0.153 0.191-0.241c0.050-0.066 0.101-0.126 0.151-0.183s0.102-0.106 0.155-0.149c0.053-0.042 0.11-0.076 0.171-0.1s0.127-0.037 0.2-0.037c0.077 0 0.142 0.016 0.193 0.050s0.092 0.080 0.124 0.139c0.031 0.058 0.055 0.129 0.073 0.211s0.031 0.172 0.041 0.27c0.009 0.084 0.017 0.166 0.026 0.248s0.024 0.155 0.048 0.219c0.024 0.065 0.058 0.117 0.103 0.158s0.108 0.060 0.192 0.060c0.064 0 0.131-0.015 0.201-0.045s0.144-0.071 0.221-0.124c0.077-0.053 0.157-0.115 0.24-0.186s0.167-0.149 0.256-0.235c0.034-0.032 0.072-0.074 0.112-0.124s0.081-0.098 0.121-0.144c0.040-0.046 0.076-0.086 0.111-0.118s0.062-0.049 0.083-0.049c0.009 0 0.024 0.005 0.043 0.013 0.018 0.007 0.028 0.022 0.028 0.043z"></path>
<path d="M66.187 24.11c0 0.057-0.014 0.121-0.043 0.193s-0.067 0.139-0.116 0.202c-0.063 0.080-0.133 0.16-0.211 0.239s-0.16 0.154-0.244 0.226c-0.085 0.072-0.171 0.139-0.259 0.201s-0.173 0.116-0.256 0.161c-0.082 0.046-0.16 0.081-0.233 0.107s-0.137 0.039-0.192 0.039c-0.070 0-0.131-0.012-0.183-0.036s-0.097-0.056-0.135-0.097c-0.038-0.041-0.070-0.089-0.095-0.144s-0.048-0.113-0.066-0.174c-0.019-0.061-0.034-0.124-0.046-0.188s-0.023-0.128-0.033-0.189c-0.037 0.057-0.080 0.12-0.126 0.191-0.048 0.071-0.096 0.143-0.147 0.216s-0.104 0.143-0.156 0.211c-0.053 0.067-0.103 0.127-0.149 0.177-0.052 0.055-0.109 0.108-0.171 0.159s-0.127 0.095-0.197 0.133c-0.069 0.038-0.142 0.068-0.218 0.091s-0.154 0.035-0.234 0.035c-0.117 0-0.21-0.048-0.277-0.145s-0.098-0.208-0.098-0.335c0-0.059 0.005-0.122 0.014-0.186 0.010-0.065 0.021-0.129 0.034-0.193s0.025-0.127 0.037-0.189c0.012-0.062 0.020-0.12 0.025-0.175 0.001-0.022 0.003-0.050 0.003-0.084 0.001-0.033 0.001-0.072 0.001-0.117 0-0.040 0-0.077 0-0.111s0.001-0.065 0.002-0.096c0.001-0.031 0.004-0.061 0.007-0.090s0.008-0.061 0.013-0.094c0.009-0.050 0.029-0.095 0.060-0.132s0.080-0.056 0.147-0.056c0.137 0 0.205 0.095 0.205 0.283 0 0.032-0.004 0.069-0.010 0.108-0.007 0.040-0.015 0.080-0.024 0.123s-0.018 0.085-0.028 0.129c-0.010 0.044-0.018 0.086-0.026 0.128-0.015 0.058-0.030 0.116-0.045 0.174s-0.029 0.115-0.042 0.17c-0.012 0.055-0.022 0.108-0.030 0.16s-0.011 0.099-0.011 0.142c0 0.022 0.003 0.048 0.009 0.075s0.015 0.053 0.027 0.078c0.012 0.025 0.028 0.045 0.048 0.062s0.043 0.025 0.070 0.025c0.079 0 0.159-0.022 0.239-0.066s0.157-0.098 0.231-0.163c0.073-0.064 0.143-0.134 0.207-0.207 0.065-0.074 0.122-0.141 0.171-0.202 0.048-0.061 0.095-0.133 0.142-0.217s0.092-0.17 0.134-0.26c0.043-0.090 0.083-0.18 0.122-0.269s0.074-0.17 0.105-0.241c0.070-0.164 0.133-0.245 0.187-0.245 0.040 0 0.067 0.006 0.080 0.019s0.020 0.038 0.020 0.077c0 0.030-0.003 0.070-0.010 0.121s-0.014 0.104-0.023 0.159-0.017 0.108-0.023 0.159-0.010 0.090-0.010 0.118c0 0.026 0 0.056 0.001 0.092s0.002 0.074 0.003 0.113 0.004 0.077 0.008 0.115c0.004 0.038 0.009 0.070 0.015 0.097 0.006 0.031 0.016 0.070 0.031 0.115s0.034 0.089 0.057 0.133c0.023 0.043 0.051 0.080 0.084 0.11s0.070 0.046 0.114 0.046c0.080 0 0.171-0.024 0.274-0.071s0.206-0.109 0.314-0.184c0.107-0.075 0.213-0.159 0.319-0.252s0.204-0.185 0.295-0.276c0.036-0.036 0.072-0.071 0.108-0.107s0.070-0.066 0.1-0.089c0.031-0.024 0.055-0.039 0.074-0.047 0.018-0.009 0.027-0.003 0.027 0.016z"></path>
<path d="M68.074 23.95c0 0.055-0.015 0.097-0.045 0.126s-0.064 0.054-0.103 0.077c-0.049 0.022-0.104 0.043-0.164 0.060s-0.122 0.034-0.185 0.048c-0.064 0.014-0.127 0.026-0.191 0.036s-0.125 0.018-0.183 0.024c-0.063 0.006-0.128 0.012-0.199 0.018s-0.138 0.012-0.203 0.019c-0.066 0.006-0.126 0.014-0.182 0.023s-0.101 0.020-0.135 0.033c-0.031 0.135-0.064 0.265-0.099 0.387s-0.065 0.245-0.088 0.368c-0.006 0.028-0.014 0.070-0.023 0.127s-0.019 0.116-0.028 0.178c-0.009 0.062-0.016 0.12-0.024 0.174s-0.010 0.093-0.010 0.117c0 0.061 0.010 0.107 0.029 0.138s0.041 0.055 0.064 0.073c0.023 0.019 0.044 0.036 0.064 0.053s0.029 0.041 0.029 0.074c0 0.021-0.010 0.041-0.030 0.060s-0.045 0.037-0.073 0.051-0.058 0.026-0.091 0.034c-0.032 0.009-0.060 0.012-0.084 0.012-0.043 0-0.082-0.012-0.116-0.036s-0.064-0.054-0.087-0.093c-0.024-0.038-0.043-0.081-0.056-0.13s-0.020-0.1-0.020-0.152c0-0.068 0.006-0.142 0.018-0.219 0.012-0.079 0.027-0.159 0.045-0.24s0.037-0.166 0.057-0.251c0.020-0.086 0.039-0.171 0.057-0.256 0.008-0.036 0.015-0.073 0.024-0.11s0.015-0.074 0.022-0.107c0.006-0.034 0.012-0.062 0.016-0.084s0.007-0.036 0.007-0.040c0-0.024-0.009-0.042-0.026-0.054s-0.037-0.019-0.061-0.019c-0.018 0-0.045 0.001-0.080 0.005s-0.073 0.007-0.113 0.011c-0.039 0.005-0.077 0.008-0.112 0.011s-0.062 0.005-0.078 0.005c-0.053 0-0.099-0.003-0.136-0.010s-0.067-0.019-0.090-0.037c-0.023-0.018-0.040-0.043-0.052-0.075s-0.016-0.073-0.016-0.124c0-0.021 0.010-0.037 0.029-0.049s0.043-0.021 0.070-0.026c0.027-0.006 0.057-0.009 0.088-0.009s0.059-0.001 0.083-0.001c0.019 0 0.051-0.002 0.095-0.006s0.090-0.008 0.138-0.012c0.048-0.005 0.095-0.009 0.138-0.012s0.076-0.006 0.095-0.006c0.009 0 0.019-0.001 0.031-0.002s0.024-0.006 0.037-0.012c0.012-0.006 0.024-0.018 0.034-0.033s0.019-0.038 0.027-0.066c0.010-0.046 0.023-0.1 0.038-0.162s0.030-0.125 0.046-0.19c0.016-0.064 0.031-0.127 0.046-0.187s0.028-0.112 0.038-0.155c0.013-0.042 0.025-0.086 0.035-0.134s0.018-0.095 0.027-0.143c0.008-0.048 0.017-0.094 0.028-0.139s0.024-0.086 0.040-0.123c0.032-0.077 0.086-0.116 0.159-0.116 0.11 0 0.165 0.061 0.165 0.183 0 0.076-0.016 0.163-0.049 0.261-0.071 0.226-0.124 0.412-0.159 0.56s-0.051 0.245-0.051 0.295c0 0.055 0.028 0.083 0.083 0.083 0.067 0 0.13-0.001 0.188-0.003s0.119-0.006 0.179-0.011c0.061-0.005 0.124-0.011 0.191-0.019s0.142-0.016 0.225-0.025c0.059-0.008 0.117-0.016 0.171-0.027s0.105-0.021 0.15-0.030c0.046-0.010 0.087-0.019 0.123-0.028s0.066-0.015 0.089-0.018c0.016-0.001 0.032-0.004 0.048-0.007s0.029-0.004 0.040-0.001c0.010 0.002 0.020 0.008 0.027 0.018 0.005 0.011 0.008 0.027 0.008 0.049z"></path>
<path d="M50.058 28.932c0 0.013-0.003 0.030-0.008 0.051s-0.011 0.043-0.020 0.067c-0.009 0.024-0.018 0.048-0.029 0.072s-0.023 0.047-0.037 0.066c-0.026 0.039-0.059 0.084-0.099 0.134s-0.086 0.103-0.135 0.157c-0.049 0.054-0.102 0.109-0.158 0.163s-0.11 0.104-0.164 0.148c-0.043 0.036-0.093 0.075-0.15 0.118s-0.116 0.084-0.179 0.121-0.126 0.068-0.192 0.092c-0.066 0.025-0.127 0.037-0.185 0.037-0.052 0-0.1-0.008-0.142-0.022s-0.081-0.043-0.116-0.084c-0.035-0.041-0.066-0.097-0.093-0.169s-0.050-0.164-0.069-0.277c-0.009-0.048-0.016-0.099-0.024-0.153s-0.013-0.108-0.020-0.162c-0.007-0.053-0.013-0.105-0.019-0.155s-0.013-0.094-0.021-0.132c-0.009-0.038-0.017-0.068-0.027-0.090s-0.021-0.033-0.032-0.033c-0.019 0-0.047 0.016-0.082 0.049s-0.076 0.080-0.123 0.142c-0.048 0.062-0.098 0.136-0.154 0.222s-0.114 0.183-0.175 0.29c-0.121 0.214-0.222 0.377-0.306 0.489s-0.16 0.167-0.228 0.167c-0.103 0-0.172-0.048-0.208-0.145-0.032-0.098-0.053-0.262-0.060-0.493-0.005-0.224-0.021-0.398-0.048-0.519s-0.063-0.182-0.106-0.182c-0.027 0-0.066 0.024-0.117 0.072s-0.11 0.115-0.174 0.2c-0.065 0.085-0.135 0.185-0.211 0.3s-0.152 0.241-0.228 0.376c-0.021 0.036-0.045 0.077-0.071 0.123s-0.054 0.093-0.082 0.139c-0.027 0.048-0.054 0.091-0.080 0.133s-0.048 0.076-0.068 0.103c-0.043 0.063-0.095 0.094-0.156 0.094-0.113 0-0.187-0.058-0.223-0.174-0.009-0.030-0.016-0.054-0.022-0.072s-0.009-0.038-0.012-0.056c-0.003-0.018-0.005-0.039-0.006-0.061s-0.001-0.051-0.001-0.087c0-0.059 0.002-0.114 0.005-0.164s0.009-0.1 0.015-0.15 0.013-0.105 0.022-0.163 0.018-0.126 0.027-0.203c0.008-0.064 0.014-0.133 0.020-0.205s0.011-0.144 0.017-0.213c0.005-0.070 0.010-0.133 0.015-0.191s0.012-0.104 0.022-0.139c0.005-0.018 0.015-0.039 0.031-0.063s0.035-0.047 0.057-0.068c0.022-0.022 0.044-0.040 0.068-0.056s0.045-0.023 0.063-0.023c0.031 0 0.057 0.007 0.077 0.021s0.037 0.033 0.049 0.057c0.013 0.024 0.022 0.052 0.027 0.084s0.008 0.065 0.008 0.1c0 0.036-0.004 0.080-0.010 0.134-0.007 0.053-0.016 0.112-0.026 0.174s-0.022 0.127-0.035 0.194c-0.012 0.067-0.025 0.131-0.037 0.192s-0.023 0.117-0.032 0.169c-0.010 0.051-0.017 0.093-0.022 0.126-0.013 0.082-0.022 0.147-0.027 0.196s-0.007 0.087-0.007 0.117c0.019-0.019 0.044-0.048 0.074-0.087s0.063-0.084 0.098-0.136 0.073-0.109 0.112-0.172c0.040-0.063 0.080-0.126 0.12-0.192 0.028-0.046 0.060-0.098 0.095-0.156s0.071-0.117 0.11-0.176c0.038-0.058 0.075-0.114 0.112-0.166s0.071-0.096 0.103-0.132c0.063-0.071 0.127-0.126 0.194-0.163s0.137-0.056 0.21-0.056c0.071 0 0.133 0.028 0.186 0.084s0.088 0.128 0.106 0.218c0.009 0.042 0.016 0.090 0.022 0.144s0.010 0.112 0.014 0.171 0.009 0.119 0.012 0.179c0.004 0.059 0.008 0.116 0.012 0.17 0.005 0.052 0.011 0.095 0.019 0.129s0.016 0.061 0.026 0.082c0.009 0.020 0.017 0.034 0.025 0.042s0.013 0.012 0.018 0.012c0.028 0 0.076-0.059 0.143-0.176 0.034-0.059 0.072-0.126 0.114-0.199s0.088-0.153 0.139-0.241c0.050-0.086 0.105-0.17 0.163-0.25s0.115-0.151 0.17-0.213c0.056-0.062 0.108-0.111 0.158-0.147s0.090-0.054 0.125-0.054c0.022 0 0.046 0.002 0.069 0.007s0.047 0.011 0.069 0.020 0.042 0.020 0.059 0.032c0.017 0.013 0.030 0.027 0.039 0.042 0.022 0.036 0.038 0.076 0.048 0.122s0.017 0.097 0.022 0.156c0.005 0.058 0.009 0.124 0.012 0.197s0.010 0.152 0.019 0.24c0.021 0.186 0.053 0.325 0.097 0.416s0.106 0.137 0.188 0.137c0.031 0 0.070-0.010 0.118-0.031s0.098-0.048 0.152-0.082c0.053-0.033 0.108-0.071 0.163-0.113s0.106-0.085 0.154-0.126 0.093-0.084 0.137-0.126c0.044-0.042 0.088-0.085 0.133-0.129s0.090-0.089 0.138-0.137c0.047-0.048 0.097-0.098 0.15-0.152 0.018-0.018 0.034-0.027 0.049-0.027 0.024-0.003 0.035 0.016 0.035 0.055z"></path>
<path d="M53.058 28.967c0 0.018-0.002 0.039-0.007 0.064s-0.011 0.049-0.019 0.075c-0.008 0.026-0.017 0.049-0.027 0.073s-0.020 0.041-0.030 0.054c-0.009 0.012-0.022 0.028-0.039 0.048s-0.036 0.042-0.057 0.066-0.044 0.048-0.068 0.075c-0.025 0.026-0.050 0.051-0.077 0.075-0.092 0.085-0.182 0.167-0.271 0.246s-0.18 0.15-0.274 0.211-0.192 0.11-0.294 0.146c-0.102 0.037-0.213 0.054-0.332 0.053-0.055 0-0.11-0.010-0.166-0.030s-0.108-0.048-0.157-0.086-0.091-0.082-0.127-0.134-0.061-0.109-0.076-0.172c-0.043 0.045-0.088 0.091-0.136 0.14s-0.097 0.097-0.148 0.146c-0.052 0.049-0.105 0.097-0.16 0.143s-0.112 0.088-0.17 0.127c-0.032 0.021-0.072 0.043-0.117 0.067s-0.093 0.046-0.143 0.066c-0.050 0.020-0.1 0.036-0.15 0.049s-0.095 0.019-0.135 0.019c-0.061 0-0.113-0.019-0.157-0.057s-0.080-0.085-0.11-0.139c-0.029-0.055-0.050-0.114-0.064-0.176s-0.022-0.118-0.022-0.167c0-0.098 0.014-0.199 0.042-0.301s0.065-0.203 0.11-0.3c0.046-0.097 0.096-0.19 0.152-0.277s0.111-0.166 0.164-0.235c0.057-0.071 0.124-0.143 0.201-0.213s0.158-0.134 0.241-0.19c0.084-0.055 0.165-0.101 0.245-0.135s0.152-0.051 0.214-0.051c0.031 0 0.064 0 0.099 0s0.069 0.002 0.104 0.006c0.034 0.004 0.068 0.010 0.101 0.018s0.063 0.020 0.089 0.037c0.013 0.009 0.029 0.026 0.047 0.051s0.034 0.053 0.050 0.085c0.015 0.031 0.029 0.063 0.039 0.094s0.016 0.056 0.016 0.074c0 0.049-0.011 0.115-0.033 0.197-0.024 0.103-0.046 0.196-0.066 0.28s-0.030 0.171-0.030 0.26c0 0.050 0.008 0.102 0.025 0.155s0.040 0.101 0.070 0.144c0.031 0.043 0.068 0.079 0.112 0.106s0.094 0.041 0.149 0.041c0.090 0 0.184-0.019 0.279-0.057s0.192-0.090 0.289-0.156c0.097-0.066 0.194-0.143 0.291-0.23s0.192-0.18 0.286-0.278c0.008-0.009 0.021-0.024 0.039-0.046s0.038-0.043 0.058-0.064c0.020-0.022 0.040-0.041 0.059-0.058s0.033-0.026 0.042-0.026c0.032 0.001 0.048 0.032 0.048 0.093zM51.072 28.782c0-0.026-0.001-0.057-0.005-0.094s-0.012-0.068-0.029-0.091-0.037-0.035-0.060-0.034c-0.024 0-0.048 0.001-0.071 0.001-0.052 0-0.102 0.008-0.151 0.025s-0.096 0.039-0.142 0.068c-0.046 0.029-0.090 0.063-0.133 0.1s-0.084 0.078-0.124 0.12c-0.034 0.034-0.070 0.077-0.108 0.127s-0.075 0.106-0.112 0.166c-0.037 0.060-0.072 0.123-0.106 0.189s-0.064 0.132-0.089 0.197c-0.026 0.065-0.046 0.128-0.060 0.187s-0.022 0.115-0.022 0.164c0 0.015 0.002 0.035 0.006 0.059s0.010 0.048 0.018 0.071c0.008 0.023 0.019 0.043 0.033 0.059s0.032 0.025 0.053 0.025c0.068 0 0.154-0.021 0.257-0.065 0.14-0.059 0.267-0.141 0.381-0.244s0.211-0.223 0.291-0.358c0.115-0.21 0.173-0.434 0.173-0.672z"></path>
<path d="M55.062 28.874c0 0.024-0.007 0.050-0.020 0.079s-0.031 0.059-0.053 0.090-0.048 0.063-0.076 0.095c-0.028 0.032-0.057 0.064-0.085 0.095-0.022 0.026-0.046 0.051-0.071 0.077s-0.054 0.055-0.086 0.087c-0.032 0.032-0.069 0.069-0.113 0.112s-0.094 0.091-0.152 0.148c-0.052 0.050-0.11 0.104-0.173 0.16s-0.128 0.11-0.192 0.164c-0.065 0.053-0.128 0.105-0.189 0.154s-0.114 0.092-0.159 0.129c-0.107 0.088-0.209 0.171-0.306 0.249s-0.192 0.148-0.286 0.211c-0.186 0.125-0.333 0.187-0.442 0.187-0.037 0-0.080-0.010-0.129-0.029-0.050-0.019-0.076-0.046-0.076-0.080 0-0.097 0.037-0.173 0.109-0.228 0.071-0.052 0.183-0.108 0.335-0.17 0.149-0.059 0.26-0.117 0.335-0.174s0.112-0.134 0.112-0.232c0-0.049-0.051-0.149-0.154-0.299-0.050-0.076-0.096-0.145-0.135-0.208s-0.073-0.121-0.102-0.171c-0.057-0.104-0.085-0.213-0.085-0.328 0-0.1 0.019-0.204 0.056-0.314 0.018-0.063 0.047-0.125 0.086-0.189s0.083-0.12 0.128-0.17c0.046-0.049 0.093-0.089 0.141-0.119s0.089-0.044 0.125-0.043c0.131 0 0.197 0.077 0.197 0.232 0 0.059-0.022 0.117-0.065 0.174-0.021 0.027-0.046 0.054-0.076 0.084s-0.064 0.060-0.103 0.092c-0.037 0.031-0.069 0.059-0.095 0.083s-0.048 0.044-0.064 0.060c0 0.077 0.024 0.168 0.071 0.272 0.026 0.050 0.054 0.106 0.087 0.165s0.070 0.124 0.114 0.192 0.080 0.13 0.109 0.184c0.030 0.054 0.052 0.094 0.067 0.119 0.001 0.006 0.010 0.009 0.025 0.009 0.021 0 0.057-0.015 0.108-0.046s0.112-0.071 0.183-0.122c0.070-0.052 0.147-0.111 0.231-0.179s0.166-0.14 0.25-0.216c0.086-0.077 0.158-0.145 0.214-0.203s0.11-0.112 0.161-0.163 0.088-0.090 0.113-0.117c0.024-0.027 0.038-0.041 0.041-0.041 0.012 0 0.023 0.005 0.033 0.013s0.020 0.021 0.028 0.035c0.008 0.014 0.014 0.029 0.019 0.045 0.006 0.016 0.009 0.030 0.009 0.043z"></path>
<path d="M56.989 28.521c0 0.055-0.015 0.097-0.045 0.126s-0.064 0.054-0.103 0.077c-0.049 0.022-0.104 0.043-0.164 0.060s-0.122 0.034-0.185 0.048c-0.064 0.014-0.127 0.026-0.191 0.036s-0.125 0.018-0.183 0.024c-0.063 0.006-0.128 0.012-0.199 0.018s-0.138 0.012-0.203 0.019c-0.066 0.006-0.126 0.014-0.182 0.023s-0.101 0.020-0.135 0.033c-0.031 0.135-0.064 0.265-0.099 0.387s-0.065 0.245-0.088 0.368c-0.006 0.028-0.014 0.070-0.023 0.127s-0.019 0.116-0.028 0.178c-0.009 0.062-0.016 0.12-0.024 0.174s-0.010 0.093-0.010 0.117c0 0.061 0.010 0.107 0.029 0.138s0.041 0.055 0.064 0.073c0.023 0.019 0.044 0.036 0.064 0.053s0.029 0.041 0.029 0.074c0 0.021-0.010 0.041-0.030 0.060s-0.045 0.037-0.073 0.051-0.059 0.026-0.090 0.034c-0.032 0.009-0.060 0.012-0.084 0.012-0.043 0-0.082-0.012-0.116-0.036s-0.064-0.054-0.087-0.093c-0.024-0.038-0.042-0.081-0.056-0.13s-0.020-0.1-0.020-0.152c0-0.068 0.006-0.142 0.018-0.219 0.012-0.079 0.027-0.159 0.045-0.24s0.037-0.166 0.057-0.251c0.020-0.086 0.039-0.171 0.057-0.256 0.008-0.036 0.015-0.073 0.024-0.11s0.015-0.074 0.022-0.107c0.006-0.034 0.012-0.062 0.016-0.084s0.007-0.036 0.007-0.040c0-0.024-0.009-0.042-0.026-0.054s-0.038-0.019-0.061-0.019c-0.018 0-0.045 0.001-0.080 0.005s-0.073 0.007-0.113 0.011c-0.039 0.005-0.077 0.008-0.112 0.011s-0.062 0.005-0.078 0.005c-0.053 0-0.099-0.003-0.136-0.010s-0.067-0.019-0.090-0.037c-0.023-0.018-0.040-0.043-0.052-0.075s-0.016-0.073-0.016-0.124c0-0.021 0.010-0.037 0.029-0.049s0.043-0.021 0.070-0.026c0.027-0.006 0.057-0.009 0.088-0.009s0.059-0.001 0.083-0.001c0.019 0 0.051-0.002 0.095-0.006s0.090-0.008 0.139-0.012c0.048-0.005 0.095-0.009 0.139-0.012s0.076-0.006 0.095-0.006c0.009 0 0.019-0.001 0.031-0.002s0.024-0.006 0.037-0.012c0.012-0.006 0.024-0.018 0.034-0.033s0.019-0.038 0.027-0.066c0.010-0.046 0.023-0.1 0.038-0.162s0.030-0.125 0.046-0.19c0.016-0.064 0.031-0.127 0.046-0.187s0.028-0.112 0.038-0.155c0.013-0.042 0.025-0.086 0.035-0.134s0.018-0.095 0.027-0.143c0.008-0.048 0.017-0.094 0.028-0.139s0.024-0.086 0.040-0.123c0.032-0.077 0.086-0.116 0.159-0.116 0.11 0 0.165 0.061 0.165 0.183 0 0.076-0.016 0.163-0.049 0.261-0.071 0.226-0.124 0.412-0.159 0.56s-0.051 0.245-0.051 0.295c0 0.055 0.028 0.083 0.083 0.083 0.067 0 0.13-0.001 0.188-0.003s0.119-0.006 0.179-0.011c0.061-0.005 0.124-0.011 0.191-0.019s0.142-0.016 0.225-0.025c0.059-0.008 0.117-0.016 0.171-0.027s0.105-0.021 0.15-0.030c0.046-0.010 0.087-0.019 0.123-0.028s0.066-0.015 0.089-0.018c0.016-0.001 0.032-0.004 0.048-0.007s0.029-0.004 0.040-0.001c0.011 0.002 0.020 0.008 0.027 0.018 0.005 0.011 0.008 0.027 0.008 0.049z"></path>
<path d="M59.098 28.947c0 0.022-0.016 0.062-0.049 0.118-0.077 0.112-0.164 0.223-0.26 0.335s-0.198 0.218-0.305 0.318c-0.108 0.1-0.22 0.194-0.337 0.281s-0.234 0.162-0.353 0.225c-0.119 0.064-0.238 0.112-0.356 0.146s-0.232 0.050-0.342 0.049c-0.238 0-0.423-0.069-0.555-0.208s-0.197-0.347-0.197-0.627c0-0.234 0.036-0.461 0.108-0.681s0.196-0.432 0.37-0.636c0.032-0.036 0.069-0.070 0.111-0.103s0.084-0.062 0.129-0.087c0.045-0.026 0.092-0.046 0.14-0.060s0.097-0.024 0.146-0.027c0.012 0 0.028 0.001 0.049 0.005s0.043 0.008 0.067 0.016 0.047 0.016 0.069 0.028c0.022 0.011 0.040 0.025 0.053 0.041 0.042 0.048 0.075 0.097 0.1 0.147s0.038 0.106 0.041 0.167c0.003 0.068-0.005 0.136-0.023 0.202s-0.050 0.134-0.094 0.203c-0.044 0.070-0.102 0.141-0.173 0.214s-0.158 0.153-0.259 0.238c-0.064 0.053-0.135 0.113-0.214 0.177s-0.172 0.133-0.282 0.204c0 0.144 0.044 0.254 0.13 0.33s0.207 0.112 0.358 0.112c0.085 0 0.17-0.011 0.257-0.033s0.171-0.052 0.255-0.088c0.084-0.037 0.164-0.079 0.242-0.125 0.079-0.048 0.152-0.095 0.22-0.144 0.126-0.092 0.241-0.184 0.344-0.276s0.204-0.188 0.306-0.289l0.121-0.121c0.073-0.064 0.126-0.096 0.159-0.096 0.018 0 0.026 0.015 0.026 0.043zM57.393 28.503c-0.001-0.022-0.005-0.044-0.010-0.066s-0.013-0.041-0.023-0.057-0.022-0.029-0.036-0.039c-0.013-0.010-0.029-0.014-0.047-0.014-0.079 0.005-0.158 0.053-0.237 0.144s-0.153 0.213-0.223 0.363c-0.016 0.032-0.031 0.070-0.043 0.11s-0.025 0.083-0.036 0.125c-0.011 0.043-0.021 0.085-0.029 0.126s-0.015 0.079-0.021 0.112c0.077-0.058 0.149-0.112 0.214-0.161s0.126-0.1 0.183-0.152c0.036-0.032 0.072-0.068 0.109-0.106s0.071-0.078 0.102-0.12c0.030-0.042 0.054-0.085 0.072-0.129s0.026-0.090 0.025-0.135z"></path>
<path d="M60.908 28.686c0 0.009-0.001 0.022-0.002 0.039s-0.005 0.034-0.011 0.052c-0.006 0.017-0.013 0.032-0.022 0.046s-0.019 0.020-0.032 0.020c-0.009 0-0.024-0-0.045-0.001s-0.043-0.002-0.066-0.003c-0.023-0.001-0.045-0.003-0.066-0.003s-0.036-0.001-0.045-0.001c-0.284 0.018-0.521 0.122-0.71 0.313-0.186 0.186-0.347 0.434-0.482 0.746-0.026 0.064-0.050 0.13-0.075 0.199s-0.048 0.141-0.070 0.217c-0.012 0.042-0.021 0.079-0.026 0.11s-0.013 0.066-0.026 0.102c-0.003 0.012-0.016 0.023-0.038 0.035s-0.048 0.021-0.075 0.030c-0.027 0.009-0.053 0.016-0.079 0.022s-0.042 0.009-0.051 0.009c-0.103 0.006-0.161-0.101-0.174-0.319-0.005-0.059-0.006-0.113-0.005-0.162s0.002-0.096 0.005-0.141c0.003-0.045 0.007-0.093 0.012-0.143s0.011-0.106 0.016-0.168c0.008-0.077 0.016-0.166 0.027-0.268s0.022-0.203 0.036-0.306 0.028-0.2 0.042-0.294c0.015-0.093 0.030-0.17 0.047-0.231 0.016-0.070 0.039-0.122 0.068-0.156s0.071-0.053 0.128-0.056c0.015 0 0.031 0.004 0.048 0.012s0.033 0.019 0.048 0.032c0.014 0.013 0.026 0.028 0.036 0.043s0.015 0.028 0.016 0.040c0.001 0.037 0.001 0.078-0.002 0.122s-0.008 0.089-0.016 0.136c-0.008 0.048-0.016 0.094-0.027 0.142s-0.021 0.093-0.031 0.136c-0.021 0.085-0.037 0.158-0.048 0.218s-0.021 0.119-0.028 0.176-0.015 0.117-0.022 0.181c-0.008 0.065-0.017 0.145-0.029 0.24 0.026-0.057 0.048-0.105 0.066-0.145s0.035-0.075 0.050-0.106c0.015-0.031 0.029-0.058 0.041-0.082s0.027-0.048 0.042-0.075c0.015-0.026 0.031-0.055 0.049-0.086s0.040-0.069 0.067-0.114c0.104-0.173 0.216-0.314 0.335-0.423s0.234-0.187 0.344-0.235c0.125-0.059 0.228-0.091 0.308-0.096 0.039-0.001 0.085 0.001 0.139 0.007s0.105 0.017 0.154 0.033 0.091 0.038 0.126 0.064c0.037 0.026 0.054 0.058 0.054 0.095z"></path>
<path d="M63.419 28.874c0 0.024-0.007 0.050-0.020 0.079s-0.031 0.059-0.053 0.090-0.048 0.063-0.076 0.095c-0.028 0.032-0.057 0.064-0.085 0.095-0.022 0.026-0.046 0.051-0.071 0.077s-0.054 0.055-0.086 0.087c-0.032 0.032-0.069 0.069-0.113 0.112s-0.094 0.091-0.152 0.148c-0.052 0.050-0.11 0.104-0.173 0.16s-0.128 0.11-0.192 0.164c-0.065 0.053-0.128 0.105-0.189 0.154s-0.114 0.092-0.159 0.129c-0.107 0.088-0.209 0.171-0.306 0.249s-0.192 0.148-0.286 0.211c-0.186 0.125-0.333 0.187-0.442 0.187-0.037 0-0.080-0.010-0.129-0.029-0.050-0.019-0.076-0.046-0.076-0.080 0-0.097 0.037-0.173 0.109-0.228 0.071-0.052 0.183-0.108 0.335-0.17 0.149-0.059 0.26-0.117 0.335-0.174s0.112-0.134 0.112-0.232c0-0.049-0.051-0.149-0.154-0.299-0.050-0.076-0.096-0.145-0.135-0.208s-0.073-0.121-0.102-0.171c-0.057-0.104-0.085-0.213-0.085-0.328 0-0.1 0.019-0.204 0.056-0.314 0.018-0.063 0.047-0.125 0.086-0.189s0.083-0.12 0.128-0.17c0.046-0.049 0.093-0.089 0.141-0.119s0.089-0.044 0.125-0.043c0.131 0 0.197 0.077 0.197 0.232 0 0.059-0.022 0.117-0.065 0.174-0.021 0.027-0.046 0.054-0.076 0.084s-0.064 0.060-0.103 0.092c-0.037 0.031-0.069 0.059-0.095 0.083s-0.048 0.044-0.064 0.060c0 0.077 0.024 0.168 0.071 0.272 0.026 0.050 0.054 0.106 0.087 0.165s0.070 0.124 0.114 0.192 0.080 0.13 0.109 0.184c0.030 0.054 0.052 0.094 0.067 0.119 0.001 0.006 0.010 0.009 0.025 0.009 0.021 0 0.057-0.015 0.108-0.046s0.112-0.071 0.183-0.122c0.070-0.052 0.147-0.111 0.231-0.179s0.166-0.14 0.25-0.216c0.086-0.077 0.158-0.145 0.214-0.203s0.11-0.112 0.161-0.163 0.088-0.090 0.113-0.117c0.024-0.027 0.038-0.041 0.041-0.041 0.012 0 0.023 0.005 0.033 0.013s0.020 0.021 0.028 0.035c0.008 0.014 0.014 0.029 0.019 0.045 0.007 0.016 0.009 0.030 0.009 0.043z"></path>
</symbol>
</defs>
</svg>
